<?xml version="1.0" standalone="no"?>
<!DOCTYPE svg PUBLIC "-//W3C//DTD SVG 20010904//EN"
 "http://www.w3.org/TR/2001/REC-SVG-20010904/DTD/svg10.dtd">
<svg version="1.0" xmlns="http://www.w3.org/2000/svg"
 width="750.000000pt" height="750.000000pt" viewBox="0 0 750.000000 750.000000"
 preserveAspectRatio="xMidYMid meet">
<metadata>
Created by potrace 1.11, written by Peter Selinger 2001-2013
</metadata>
<g transform="translate(0.000000,750.000000) scale(0.100000,-0.100000)"
fill="#000000" stroke="none">
<path d="M4070 7478 c0 -13 -9 -34 -20 -48 -13 -17 -20 -41 -20 -72 0 -44 -12
-68 -42 -82 -10 -5 -10 -7 0 -12 17 -8 15 -21 -6 -42 -14 -14 -17 -32 -15 -87
3 -84 -2 -105 -27 -105 -20 0 -80 -83 -80 -111 0 -10 -4 -20 -9 -23 -4 -3 -9
-42 -10 -86 -1 -63 1 -80 13 -80 38 0 55 -142 19 -163 -8 -5 -11 -16 -8 -26 3
-9 -2 -26 -10 -37 -8 -10 -15 -27 -15 -37 0 -31 -47 -112 -72 -125 -13 -7 -28
-29 -35 -49 -9 -31 -8 -38 9 -55 19 -19 19 -24 8 -59 -7 -22 -20 -39 -28 -39
-11 0 -13 -11 -9 -46 3 -34 0 -51 -12 -63 -9 -9 -24 -29 -34 -44 -9 -14 -28
-29 -42 -33 -14 -3 -25 -13 -25 -20 0 -8 -6 -17 -13 -19 -14 -6 -11 -95 4 -95
5 0 9 -8 9 -18 0 -21 43 -62 65 -62 8 0 15 -4 15 -9 0 -6 12 -6 32 0 46 13 48
12 48 -16 0 -22 3 -24 19 -16 14 8 23 5 39 -12 27 -29 94 -55 100 -38 2 6 15
11 29 11 22 0 24 -2 12 -16 -11 -14 -10 -18 5 -30 10 -7 22 -15 25 -16 3 -2
19 -20 34 -40 15 -21 35 -38 43 -38 7 0 14 -4 14 -10 0 -5 5 -10 10 -10 6 0
10 17 10 39 0 33 -4 40 -30 51 -16 7 -30 18 -30 25 0 16 33 30 38 16 5 -14 82
-14 82 -1 0 6 18 10 40 10 33 0 40 3 40 20 0 17 7 20 40 20 22 0 40 5 40 10 0
6 18 10 40 10 33 0 40 -3 40 -20 0 -17 7 -20 40 -20 32 0 40 4 40 18 0 17 12
20 118 25 73 4 118 3 120 -3 5 -13 82 -13 82 0 0 6 18 10 40 10 29 0 40 4 40
15 0 11 11 15 40 15 33 0 40 -3 40 -20 0 -17 7 -20 40 -20 33 0 40 3 40 20 0
18 7 20 63 20 51 0 68 4 82 20 16 17 33 20 153 22 l135 3 12 34 c11 33 35 55
35 32 0 -6 18 -11 40 -11 33 0 40 -3 40 -20 0 -17 7 -20 40 -20 22 0 40 5 40
10 0 6 -13 10 -30 10 -28 0 -30 2 -30 40 0 22 -4 40 -10 40 -5 0 -10 9 -10 20
0 17 7 20 40 20 33 0 40 3 40 20 0 17 7 20 40 20 36 0 40 -3 40 -25 0 -40 23
-20 43 38 10 28 17 73 17 100 -1 27 4 47 10 47 5 0 10 -4 10 -10 0 -5 18 -10
40 -10 29 0 40 -4 40 -15 0 -11 11 -15 40 -15 l40 0 0 55 0 55 40 0 40 0 0
-50 0 -50 40 0 c38 0 40 -2 40 -30 0 -28 2 -30 40 -30 22 0 40 5 40 10 0 6
-13 10 -30 10 -28 0 -30 2 -30 40 0 38 2 40 30 40 28 0 30 2 31 43 2 95 1 92
42 95 28 2 37 0 37 -12 0 -12 10 -16 40 -16 39 0 40 1 40 35 0 34 -1 35 -40
35 -22 0 -40 -4 -40 -10 0 -5 -4 -10 -10 -10 -5 0 -10 18 -10 40 0 22 5 40 10
40 6 0 10 -6 10 -14 0 -9 20 -15 61 -20 104 -10 99 -12 99 44 l0 50 40 0 c33
0 40 3 40 20 0 17 7 20 40 20 33 0 40 -3 40 -20 0 -17 7 -20 40 -20 22 0 40 5
40 10 0 6 -13 10 -30 10 -28 0 -30 2 -30 40 0 22 -4 40 -10 40 -5 0 -10 21
-10 46 l0 46 78 -4 c42 -3 60 -3 40 -1 -25 3 -38 9 -38 19 0 10 -12 14 -40 14
-23 0 -40 5 -40 11 0 8 18 10 60 5 33 -3 86 -9 118 -12 53 -6 61 -4 80 17 12
12 22 34 22 47 0 15 7 26 20 29 14 4 20 14 20 34 0 27 -3 29 -40 29 l-40 0 0
60 0 60 40 0 c22 0 40 5 40 10 0 6 18 10 40 10 l40 0 0 -60 0 -60 40 0 40 0 0
50 c0 28 -4 50 -10 50 -5 0 -10 18 -10 40 0 22 5 40 10 40 6 0 10 -4 10 -10 0
-5 18 -10 40 -10 33 0 40 3 40 20 0 17 7 20 40 20 l40 0 0 40 0 40 40 0 c24 0
40 -5 40 -12 0 -7 16 3 35 22 29 28 42 34 70 31 33 -2 35 -1 35 28 0 28 -3 31
-30 31 -16 0 -30 5 -30 10 0 6 -18 10 -40 10 -66 0 -45 17 30 24 l70 7 0 115
0 114 -1715 0 -1715 0 0 -22z m2835 -708 c-3 -5 -10 -10 -16 -10 -5 0 -9 5 -9
10 0 6 7 10 16 10 8 0 12 -4 9 -10z m-2985 -160 c0 -5 -4 -10 -10 -10 -5 0
-10 5 -10 10 0 6 5 10 10 10 6 0 10 -4 10 -10z m720 -832 c0 -16 -3 -19 -11
-11 -6 6 -8 16 -5 22 11 17 16 13 16 -11z m240 -3 c0 -11 -11 -15 -40 -15 -29
0 -40 4 -40 15 0 11 11 15 40 15 29 0 40 -4 40 -15z"/>
<path d="M2290 6800 c0 -6 6 -13 14 -16 8 -3 12 -13 9 -25 -5 -19 11 -27 21
-10 10 15 -12 61 -29 61 -8 0 -15 -5 -15 -10z"/>
<path d="M2365 6770 c3 -5 8 -10 11 -10 2 0 4 5 4 10 0 6 -5 10 -11 10 -5 0
-7 -4 -4 -10z"/>
<path d="M2277 6743 c-4 -3 -7 -11 -7 -17 0 -6 5 -5 12 2 6 6 9 14 7 17 -3 3
-9 2 -12 -2z"/>
<path d="M2423 6708 c1 -21 5 -38 10 -38 4 0 7 -4 7 -10 0 -5 -9 -10 -20 -10
-11 0 -20 5 -20 11 0 7 -8 6 -22 -3 -13 -9 -23 -20 -23 -26 0 -6 -3 -14 -7
-18 -5 -4 -8 -2 -8 5 0 16 -78 5 -94 -13 -15 -15 -20 -106 -6 -106 5 0 10 5
10 10 0 6 19 10 43 10 37 -1 40 -2 25 -14 -26 -19 -22 -26 13 -26 24 0 30 -4
25 -15 -3 -8 -3 -15 0 -15 2 0 9 12 15 28 8 19 13 23 17 12 9 -24 25 -36 59
-43 28 -5 35 -3 49 18 13 20 22 23 51 19 41 -5 55 -12 48 -24 -3 -5 0 -12 6
-16 6 -3 15 0 20 7 6 11 11 11 21 1 9 -9 9 -12 -2 -12 -9 0 -8 -5 5 -20 21
-24 45 -26 45 -5 0 10 10 15 26 15 24 0 26 -3 21 -30 -8 -36 8 -48 24 -19 8
16 13 18 19 9 5 -7 6 -18 4 -25 -3 -6 2 -18 10 -25 22 -17 33 12 17 46 -6 14
-11 36 -11 49 0 13 -4 25 -8 27 -4 2 -15 21 -23 43 -11 30 -21 40 -37 41 -13
1 -25 4 -28 6 -3 3 -23 2 -46 -4 -36 -8 -46 -6 -79 16 -21 14 -45 23 -54 20
-11 -5 -15 0 -15 18 0 28 -17 48 -42 48 -10 0 -18 3 -19 8 0 4 -2 16 -3 27 -1
11 -7 29 -14 40 -9 17 -11 15 -9 -17z m311 -223 c6 -16 -3 -19 -28 -9 -9 3
-13 10 -10 15 8 14 31 11 38 -6z"/>
<path d="M2310 6720 c-9 -6 -10 -10 -3 -10 6 0 15 5 18 10 8 12 4 12 -15 0z"/>
<path d="M2614 6693 c-4 -13 -10 -23 -15 -23 -15 0 -10 -22 9 -36 16 -12 15
-13 -6 -14 -32 0 -27 -44 6 -48 18 -3 22 1 22 22 0 13 5 37 10 51 8 20 6 32
-5 48 l-15 22 -6 -22z"/>
<path d="M2241 6654 c0 -11 3 -14 6 -6 3 7 2 16 -1 19 -3 4 -6 -2 -5 -13z"/>
<path d="M2690 6643 c0 -5 7 -18 15 -29 15 -18 15 -18 13 5 -3 23 -28 44 -28
24z"/>
<path d="M2016 6616 c3 -7 16 -13 30 -13 20 0 22 2 13 13 -6 8 -20 14 -30 14
-11 0 -16 -5 -13 -14z"/>
<path d="M2177 6623 c-10 -9 -9 -23 2 -23 5 0 11 7 15 15 5 15 -5 20 -17 8z"/>
<path d="M2085 6610 c3 -5 11 -10 16 -10 6 0 7 5 4 10 -3 6 -11 10 -16 10 -6
0 -7 -4 -4 -10z"/>
<path d="M1841 6568 c-15 -23 -10 -31 16 -26 16 2 17 6 8 25 -11 21 -11 21
-24 1z"/>
<path d="M1940 6553 c-24 -12 -24 -13 15 -13 22 0 36 4 30 8 -5 4 -12 10 -15
13 -3 3 -16 0 -30 -8z"/>
<path d="M2177 6556 c-7 -19 11 -32 24 -19 6 6 5 14 -4 22 -12 9 -16 8 -20 -3z"/>
<path d="M2070 6524 c0 -16 15 -26 24 -16 7 7 11 8 37 11 5 0 8 5 4 10 -8 15
-65 10 -65 -5z"/>
<path d="M2170 6491 c0 -6 5 -13 10 -16 6 -3 10 1 10 9 0 9 -4 16 -10 16 -5 0
-10 -4 -10 -9z"/>
<path d="M1740 6479 c0 -5 9 -9 20 -9 11 0 20 2 20 4 0 2 -9 6 -20 9 -11 3
-20 1 -20 -4z"/>
<path d="M2240 6470 c0 -5 5 -10 11 -10 5 0 7 5 4 10 -3 6 -8 10 -11 10 -2 0
-4 -4 -4 -10z"/>
<path d="M1807 6463 c-21 -20 9 -46 40 -36 10 4 10 9 0 24 -12 19 -28 24 -40
12z"/>
<path d="M2115 6440 c-4 -6 -11 -8 -16 -5 -5 4 -9 1 -9 -5 0 -6 7 -13 16 -17
18 -7 64 12 64 27 0 13 -47 13 -55 0z"/>
<path d="M2215 6439 c-8 -12 0 -22 20 -25 9 -1 15 6 15 17 0 20 -24 26 -35 8z"/>
<path d="M2283 6426 c3 -8 -5 -19 -19 -26 -13 -8 -24 -18 -24 -23 0 -5 6 -5
13 1 7 6 23 9 35 5 19 -5 24 -17 21 -50 0 -5 -14 -9 -30 -10 -17 -2 -38 -7
-49 -13 -26 -14 -28 -13 -22 15 2 14 8 22 13 19 5 -3 9 3 9 13 0 15 -9 18 -64
19 -49 0 -63 -3 -59 -13 3 -8 -3 -13 -17 -13 -27 0 -140 -59 -140 -73 0 -6 -3
-8 -6 -4 -3 3 -15 -3 -27 -14 -23 -21 -42 -24 -52 -9 -9 15 -35 12 -42 -6 -3
-8 4 -25 15 -37 32 -33 21 -86 -24 -116 -18 -13 -31 -27 -28 -32 3 -5 -3 -6
-13 -2 -16 6 -16 5 -5 -10 7 -8 12 -28 9 -44 -4 -27 -4 -27 -6 4 -1 36 -19 47
-41 25 -16 -17 -23 -72 -9 -72 18 0 8 -33 -19 -60 -16 -15 -34 -46 -40 -69
-14 -44 -42 -57 -42 -18 0 12 -1 39 -3 60 -1 21 1 41 5 43 14 9 9 24 -6 18 -7
-3 -20 5 -28 18 -14 22 -14 27 8 68 13 24 29 47 36 52 8 4 -6 8 -34 8 -49 0
-57 -7 -35 -29 10 -10 9 -11 -3 -7 -11 4 -23 -11 -44 -54 -15 -33 -32 -58 -35
-55 -4 2 -15 -9 -25 -25 -13 -24 -15 -34 -5 -51 7 -15 8 -19 0 -15 -18 12 -2
-113 22 -169 12 -27 33 -68 48 -90 31 -48 45 -85 30 -85 -6 0 -8 -7 -5 -15 4
-8 12 -15 20 -15 8 0 14 -4 14 -10 0 -5 -7 -7 -15 -4 -8 4 -15 1 -15 -6 0 -8
11 -11 32 -8 32 5 32 5 10 -10 -27 -17 -29 -32 -4 -32 20 0 55 -37 47 -49 -2
-5 2 -15 11 -22 14 -11 15 -8 11 29 -4 31 -2 42 9 43 8 1 20 2 26 3 19 2 22
36 5 36 -9 0 -23 3 -33 7 -13 5 -16 3 -11 -10 5 -13 1 -17 -14 -17 l-20 0 20
26 c20 26 17 53 -9 69 -6 3 -10 14 -10 23 0 12 3 13 12 4 15 -15 38 -16 38 -1
0 5 -5 7 -11 3 -9 -5 -10 1 -5 20 6 26 -8 37 -17 14 -3 -7 -6 1 -6 19 -1 17
-6 35 -11 38 -8 5 -7 12 1 22 10 12 10 16 -1 23 -8 5 -18 6 -22 4 -9 -6 -11
27 -2 50 5 12 10 13 27 3 12 -7 25 -16 28 -21 8 -10 49 2 49 15 0 5 -8 9 -18
9 -11 0 -18 8 -19 20 -2 23 7 26 25 8 9 -9 12 -8 12 5 0 23 10 21 44 -9 16
-14 28 -34 27 -47 0 -12 -2 -50 -3 -84 -3 -72 -13 -89 -25 -42 -12 46 -29 47
-29 2 -1 -21 -4 -54 -8 -74 l-8 -36 53 -15 54 -15 -3 -65 c-3 -49 0 -69 12
-81 21 -20 21 -48 1 -41 -8 4 -15 2 -15 -4 0 -14 38 -22 44 -8 2 6 5 3 5 -6 1
-10 5 -18 10 -18 13 0 8 -49 -6 -54 -6 -3 -17 2 -23 10 -15 17 -20 17 -56 4
-26 -10 -27 -12 -10 -28 14 -13 19 -14 23 -4 3 9 10 4 19 -13 15 -29 9 -55
-12 -55 -8 0 -14 -4 -14 -10 0 -5 9 -10 20 -10 11 0 20 -5 20 -11 0 -14 25
-39 39 -39 6 0 11 5 11 10 0 6 9 10 20 10 17 0 19 -5 14 -46 -4 -35 -1 -51 12
-65 23 -25 36 -24 33 4 -6 44 9 49 57 17 24 -17 44 -34 44 -38 -1 -22 -30 -87
-41 -91 -8 -2 -18 -10 -22 -17 -4 -8 -14 -14 -21 -14 -11 0 -11 -8 -3 -40 9
-32 16 -40 33 -40 13 0 26 -5 29 -10 3 -6 18 -7 33 -4 l27 6 -28 -16 c-16 -8
-33 -15 -40 -13 -6 1 -12 -5 -14 -14 -3 -12 3 -15 27 -11 27 4 30 2 28 -19 -2
-18 2 -24 15 -23 9 1 17 -4 17 -12 0 -8 5 -14 10 -14 6 0 19 -19 29 -42 16
-38 16 -46 4 -65 -13 -20 -12 -23 9 -34 13 -7 31 -12 41 -10 37 5 64 -118 30
-138 -16 -9 -17 -11 -2 -23 9 -7 26 -38 39 -68 12 -30 26 -57 30 -60 4 -3 15
-20 24 -37 16 -31 15 -34 -3 -52 -19 -19 -19 -22 -4 -67 11 -32 18 -42 24 -33
6 10 9 11 9 2 0 -7 5 -13 10 -13 6 0 10 9 10 20 0 11 -4 20 -9 20 -15 0 -21
29 -11 52 6 16 9 18 9 7 1 -9 8 -22 16 -29 8 -7 15 -20 15 -30 0 -9 12 -30 26
-45 18 -20 22 -31 15 -38 -6 -6 -11 -21 -11 -34 0 -17 4 -21 17 -16 11 4 14 3
9 -5 -4 -7 -1 -15 8 -18 22 -9 58 -94 53 -126 -2 -18 1 -28 9 -28 7 0 16 -9
19 -20 6 -20 29 -27 39 -11 3 5 27 14 53 20 27 7 58 19 70 26 26 17 36 8 53
-52 12 -39 11 -43 -12 -66 -13 -13 -35 -30 -47 -36 -19 -11 -25 -8 -50 18 -16
17 -32 31 -35 31 -9 0 22 -64 33 -68 12 -4 15 -35 4 -46 -5 -4 -8 -11 -9 -14
0 -4 -4 -15 -8 -25 -6 -13 -1 -23 18 -38 14 -11 24 -25 21 -30 -12 -18 12 -9
33 14 24 25 37 36 72 58 54 33 57 32 85 -38 14 -36 22 -70 18 -74 -5 -5 -23
-9 -41 -11 -18 -1 -41 -10 -52 -20 -22 -21 -37 -23 -42 -6 -8 23 -28 -4 -28
-36 0 -26 5 -35 22 -40 18 -4 20 -8 10 -18 -18 -18 -14 -38 8 -38 15 0 20 -7
20 -28 0 -15 -5 -33 -12 -40 -6 -6 -8 -15 -3 -19 4 -5 10 -2 12 5 5 14 33 16
33 2 0 -5 7 -10 16 -10 8 0 12 -4 9 -10 -3 -5 2 -21 11 -35 10 -15 12 -25 5
-25 -6 0 -11 -5 -11 -11 0 -6 8 -8 19 -4 24 7 35 -8 26 -36 -6 -19 -8 -19 -25
-4 -20 18 -28 11 -36 -32 -3 -15 0 -30 8 -34 10 -6 9 -11 -5 -21 -18 -13 -14
-54 4 -43 13 8 31 -33 24 -55 -4 -11 -3 -25 1 -31 10 -17 24 12 17 38 -3 13
-1 23 4 23 5 0 9 8 10 18 5 42 16 82 24 82 5 0 5 8 2 18 -6 15 -5 15 10 3 17
-14 24 -47 8 -37 -14 9 -22 -25 -10 -41 9 -11 8 -16 -6 -27 -14 -10 -17 -22
-13 -57 3 -24 9 -53 13 -64 6 -19 6 -19 -8 -2 -14 17 -16 17 -31 -5 -19 -27
-20 -39 -3 -62 12 -17 15 -16 46 13 49 46 74 40 30 -6 -18 -21 -37 -39 -42
-41 -4 -2 -14 -10 -22 -19 -8 -8 -15 -10 -15 -4 0 6 -4 11 -10 11 -5 0 -7 -7
-3 -16 4 -12 0 -15 -18 -12 -13 1 -22 7 -19 13 3 5 8 9 12 8 4 -2 5 3 2 11 -3
8 -1 17 5 21 15 8 14 52 -1 61 -8 5 -9 0 -6 -14 4 -12 2 -23 -3 -23 -5 -1 -14
-2 -20 -3 -6 0 -17 -10 -25 -20 -19 -27 -44 -29 -44 -5 0 21 -16 26 -23 7 -3
-9 -7 -6 -13 6 -5 13 -3 21 4 24 7 2 12 10 12 18 0 8 6 17 14 20 11 4 12 12 4
35 -11 32 -23 37 -32 13 -9 -23 -26 -7 -26 24 -1 25 -2 26 -15 8 -21 -28 -40
-10 -20 20 12 19 13 24 2 24 -19 0 -47 33 -48 56 0 18 -1 18 -9 -1 -6 -15 -9
-7 -8 27 1 31 -4 54 -15 66 -15 17 -15 19 3 35 24 20 26 37 5 37 -8 0 -15 5
-15 11 0 6 -7 9 -14 6 -20 -8 -31 27 -35 106 -1 26 -2 27 -17 13 -21 -21 -27
-20 -21 4 3 13 0 20 -9 20 -26 0 -63 102 -64 178 0 20 -5 32 -13 32 -8 0 -19
11 -25 25 -7 14 -17 22 -25 19 -10 -4 -13 3 -9 26 2 17 9 30 16 29 25 -3 36 2
36 17 0 12 -8 14 -36 10 -32 -6 -35 -4 -34 16 3 37 1 41 -16 27 -13 -10 -17
-10 -24 1 -6 9 -2 18 11 28 10 7 19 17 19 23 0 13 -34 11 -47 -2 -8 -8 -11 -7
-10 2 1 34 -4 49 -18 49 -8 0 -15 5 -15 11 0 5 4 7 10 4 6 -3 7 1 4 9 -3 9
-10 16 -15 16 -5 0 -9 11 -9 25 0 14 -4 25 -8 25 -12 0 -32 46 -32 71 0 11 -7
22 -16 26 -9 3 -13 12 -9 21 3 8 -3 23 -15 34 -11 10 -20 25 -20 33 0 18 -16
20 -24 3 -3 -7 -4 -1 -1 13 3 17 -1 31 -10 39 -8 7 -15 27 -15 46 0 24 -5 34
-20 39 -11 3 -20 13 -20 21 0 8 -11 19 -24 24 -13 5 -27 14 -32 21 -5 9 -2 10
9 6 9 -3 18 0 21 9 4 11 0 13 -18 8 -18 -4 -25 -1 -28 12 -3 16 -6 16 -27 -6
-37 -40 -76 -101 -100 -160 -13 -29 -34 -71 -47 -92 -13 -21 -24 -40 -24 -43
0 -4 -12 -22 -27 -41 -22 -29 -24 -37 -12 -45 8 -5 18 -9 24 -9 18 0 200 -83
207 -94 4 -5 4 -14 1 -20 -4 -5 1 -7 10 -3 11 4 14 2 11 -8 -5 -12 -9 -12 -27
0 -42 27 -208 95 -232 95 -25 0 -39 -14 -41 -40 -1 -8 -2 -23 -3 -32 0 -11 -9
-18 -21 -18 -12 0 -21 -8 -24 -22 -3 -13 -12 -56 -22 -96 -19 -82 -15 -150 10
-203 16 -35 16 -37 -19 -138 -20 -57 -43 -114 -52 -127 -14 -21 -33 -81 -35
-111 -1 -7 -7 -14 -14 -17 -7 -3 -11 0 -8 7 5 15 -73 10 -82 -4 -3 -6 5 -7 20
-3 16 4 26 2 26 -5 0 -7 -20 -11 -49 -11 -27 0 -51 -4 -53 -8 -1 -5 -18 -12
-35 -15 -25 -5 -33 -3 -33 8 0 7 12 16 28 18 15 2 6 4 -20 3 -43 -1 -84 -16
-45 -16 10 0 17 -4 17 -9 0 -4 -12 -6 -26 -3 -15 3 -24 1 -21 -4 3 -5 -6 -10
-20 -11 -14 0 -40 -9 -59 -19 -26 -14 -38 -16 -52 -8 -17 11 -72 0 -72 -15 0
-4 -6 -8 -12 -9 -7 0 -23 -4 -36 -7 -16 -6 -22 -3 -22 8 0 9 8 18 17 20 10 3
4 5 -14 6 -17 0 -35 -3 -38 -9 -3 -5 1 -10 9 -10 9 0 16 -4 16 -9 0 -5 -18 -8
-39 -7 -28 0 -47 -6 -63 -21 -21 -20 -71 -36 -153 -50 -16 -3 -33 -9 -36 -14
-3 -6 -19 -11 -35 -12 -33 -2 -53 -22 -54 -52 0 -26 43 -32 77 -10 20 13 23
13 23 1 0 -32 -13 -46 -41 -46 -37 0 -99 33 -117 62 l-13 23 7 -25 c3 -14 7
-34 8 -46 1 -13 8 -20 21 -20 11 1 19 -5 18 -11 -2 -9 6 -11 27 -6 17 3 30 1
30 -4 0 -8 -88 -134 -105 -151 -1 -1 0 9 2 23 4 17 1 25 -9 25 -10 0 -14 -13
-14 -50 0 -35 4 -49 12 -46 17 7 46 -72 34 -95 -6 -10 -10 -20 -10 -23 0 -10
49 -6 55 4 10 16 23 12 30 -11 6 -19 8 -19 24 -5 21 19 37 20 47 4 4 -6 3 -8
-3 -5 -6 4 -48 -45 -94 -108 -48 -66 -89 -113 -96 -110 -8 2 -13 -4 -13 -15 0
-10 -5 -30 -11 -44 -9 -20 -9 -29 1 -41 15 -19 16 -18 -37 -32 -46 -11 -57 -8
-20 7 l22 9 -22 0 c-12 1 -31 -8 -41 -19 -17 -18 -20 -19 -32 -5 -10 12 -10
15 1 15 8 0 1 7 -15 15 -36 19 -36 19 -36 -4 0 -11 -3 -21 -7 -24 -5 -2 -2 -2
6 0 14 3 31 -13 31 -29 0 -5 -11 -8 -24 -8 -13 0 -29 -7 -36 -16 -11 -13 -10
-18 6 -35 20 -19 54 -18 54 2 0 5 5 9 10 9 6 0 10 -7 10 -15 0 -8 5 -15 10
-15 6 0 10 3 10 8 0 4 20 6 46 4 30 -3 51 1 62 11 18 16 85 33 114 28 25 -3
60 18 51 32 -4 7 1 5 11 -3 10 -8 30 -13 45 -12 27 2 28 -1 45 -77 18 -87 48
-139 89 -159 l27 -13 -37 -69 c-29 -57 -37 -84 -41 -143 -4 -73 2 -104 78
-350 7 -21 5 -29 -6 -33 -7 -2 -21 -6 -29 -9 -20 -6 -18 -43 4 -80 15 -26 23
-30 57 -28 21 0 63 2 92 3 28 1 52 5 52 9 0 11 38 56 84 99 21 20 42 47 47 59
9 25 49 51 49 32 0 -6 47 -124 104 -263 57 -138 129 -318 161 -401 32 -82 83
-213 115 -290 l57 -140 136 -3 c84 -1 137 1 137 7 0 5 -9 26 -21 46 -12 19
-18 42 -15 51 3 8 2 13 -3 10 -9 -6 -26 41 -22 58 1 5 -2 12 -6 15 -9 7 -58
109 -59 125 0 6 -15 42 -33 80 -17 38 -30 70 -29 71 2 2 14 -1 27 -6 19 -8 22
-14 17 -35 -6 -24 -5 -25 9 -11 23 24 18 37 -20 53 -30 12 -42 27 -70 89 -19
41 -35 82 -35 89 0 8 -5 18 -11 22 -6 3 -9 15 -6 25 3 11 1 17 -4 13 -11 -7
-32 45 -25 63 3 7 2 13 -3 13 -9 0 -61 103 -61 122 0 6 -13 38 -28 72 -16 34
-34 82 -41 108 -12 43 -12 48 8 69 l21 23 -45 28 c-55 34 -63 50 -41 83 23 34
21 41 -21 62 -54 28 -62 47 -34 77 27 29 22 41 -25 61 -43 18 -51 38 -25 64
29 29 27 36 -22 60 -32 16 -49 33 -66 66 -13 26 -20 53 -16 63 3 9 3 13 -1 9
-7 -7 -64 104 -64 125 0 11 -35 90 -66 152 -10 20 -11 32 -4 41 8 9 5 14 -9
18 -11 3 -22 17 -26 35 -3 17 -17 54 -31 82 -13 27 -24 54 -24 58 0 5 -7 23
-16 41 -9 18 -13 35 -10 38 3 4 6 1 6 -7 0 -10 3 -10 15 0 8 7 15 24 15 39 0
18 22 54 65 108 36 45 65 85 65 90 0 4 15 23 32 42 29 33 31 34 44 15 7 -10
18 -24 23 -30 5 -7 7 -15 3 -19 -6 -7 43 -2 110 11 37 7 27 26 -45 84 -56 44
-84 84 -67 95 5 3 26 3 45 -1 34 -6 71 9 61 25 -3 4 27 6 66 4 41 -2 77 2 84
8 16 13 38 2 27 -14 -5 -7 -15 -30 -22 -51 -8 -22 -25 -60 -40 -85 -22 -39
-40 -76 -103 -217 -6 -12 -8 -104 -6 -210 l3 -189 55 -108 c42 -84 71 -125
124 -180 38 -38 88 -80 112 -93 40 -21 157 -47 264 -58 25 -3 63 -10 85 -16
92 -26 158 -32 274 -22 120 10 165 24 236 77 32 24 73 37 118 37 19 1 43 15
74 44 25 24 53 44 61 44 9 0 23 6 31 14 9 8 28 18 44 21 27 7 27 7 27 -43 0
-30 5 -54 14 -61 22 -19 46 13 47 62 l0 42 15 -39 c30 -82 100 -172 185 -237
51 -39 106 -56 281 -85 l107 -18 32 -100 c18 -56 38 -108 46 -117 11 -13 11
-21 1 -44 -10 -23 -10 -28 4 -36 22 -12 88 -148 133 -274 20 -55 42 -103 48
-107 17 -11 85 -10 127 1 19 6 54 11 78 13 l42 3 60 -149 c48 -120 68 -158
104 -196 25 -27 48 -61 52 -77 9 -36 22 -53 43 -53 17 0 203 -183 252 -248
l25 -32 191 2 191 3 -26 63 c-24 59 -28 63 -54 60 -28 -5 -39 7 -15 15 9 3 9
13 -1 48 -8 24 -15 57 -17 72 -2 16 -7 31 -11 35 -4 4 -4 -2 0 -13 5 -16 2
-15 -14 5 -11 14 -20 31 -20 39 0 22 -20 81 -42 126 -31 63 -50 124 -42 138 4
6 4 9 -1 5 -10 -9 -42 53 -61 117 -15 50 -34 96 -45 105 -13 12 -49 145 -44
164 4 14 3 17 -3 8 -7 -10 -11 -10 -22 2 -7 9 -16 13 -21 11 -9 -6 -39 46 -39
70 0 8 5 15 10 15 15 0 12 28 -6 56 -10 14 -23 23 -31 20 -8 -3 -12 -2 -8 3 3
5 1 11 -4 13 -14 5 -142 324 -141 351 1 7 14 -15 30 -47 16 -33 26 -64 23 -69
-4 -6 -1 -7 7 -2 9 6 10 2 5 -15 -5 -15 -4 -20 3 -16 12 7 36 -30 28 -43 -3
-4 1 -8 9 -8 11 0 10 11 -6 51 -29 73 -33 86 -22 86 11 0 29 -36 68 -135 16
-39 33 -73 39 -77 6 -4 7 -10 3 -14 -6 -6 3 -26 54 -126 5 -10 9 -26 9 -36 0
-10 4 -22 8 -27 5 -6 23 -48 41 -95 36 -93 36 -95 80 -193 17 -38 31 -77 31
-88 0 -20 -15 -26 -23 -9 -3 6 -4 5 -3 -2 2 -7 11 -13 20 -13 13 0 27 -24 52
-85 19 -47 38 -94 43 -105 15 -35 48 -118 77 -193 24 -63 26 -77 15 -94 -11
-17 -11 -20 1 -16 10 4 23 -19 47 -78 l33 -84 919 0 c626 0 919 3 919 10 0 6
-22 63 -50 127 -27 64 -50 120 -50 125 0 13 92 -37 189 -101 47 -32 104 -68
126 -79 22 -12 60 -35 85 -51 l45 -31 233 0 232 0 0 1025 0 1026 -86 115 c-98
133 -121 148 -250 163 -43 5 -110 17 -149 25 -125 29 -208 44 -320 61 -60 9
-147 23 -193 31 -46 8 -93 12 -105 8 -12 -5 -65 -8 -117 -8 l-95 -1 -46 46
c-61 61 -88 79 -120 79 -15 0 -32 6 -38 14 -7 8 -27 17 -46 20 -24 5 -40 16
-55 41 -11 19 -29 37 -38 40 -9 3 -25 17 -35 31 -15 20 -16 28 -7 39 7 8 16
13 20 10 5 -3 27 -6 50 -7 29 -1 46 -7 53 -20 20 -31 30 -20 24 25 -6 41 -6
41 9 20 20 -28 50 -32 39 -5 -24 55 -11 100 15 52 6 -11 15 -20 21 -20 6 0 17
-7 26 -15 19 -20 31 -11 14 9 -14 17 -5 40 11 30 6 -4 8 -2 5 3 -4 6 0 13 8
17 19 7 19 36 -1 64 -14 20 -13 23 9 44 27 26 52 68 40 69 -4 0 -18 2 -31 3
-14 2 -33 -8 -50 -24 -34 -34 -72 -45 -72 -21 0 17 33 51 50 51 6 0 10 5 10
10 0 17 -15 11 -40 -15 -23 -24 -50 -33 -50 -17 0 4 5 13 12 20 9 9 9 12 0 12
-7 0 -12 -4 -12 -10 0 -20 -38 -10 -53 14 -26 39 -30 71 -12 90 14 14 14 16 1
16 -13 0 -46 -25 -46 -35 0 -2 10 -20 21 -40 21 -35 19 -59 -3 -37 -7 7 -17 8
-30 1 -21 -11 -24 -39 -6 -57 9 -9 9 -15 0 -24 -9 -9 -7 -14 6 -24 9 -7 14
-16 9 -20 -4 -4 -13 -2 -19 4 -17 17 -63 15 -78 -3 -11 -13 -15 -13 -39 4 -14
10 -47 28 -73 41 -27 13 -48 30 -48 37 0 10 -7 12 -19 8 -13 -4 -34 9 -74 45
-48 44 -58 59 -77 123 -12 39 -33 100 -47 135 -14 35 -23 66 -20 69 3 2 41 9
84 14 43 6 82 14 86 18 7 7 -51 2 -143 -14 -37 -6 -41 -4 -60 27 -11 18 -20
37 -20 42 0 4 44 5 99 1 68 -5 105 -3 120 5 32 17 61 70 61 113 0 20 4 37 8
37 10 0 287 -184 327 -217 13 -11 230 -164 261 -183 12 -8 84 -58 159 -110 75
-52 167 -115 204 -140 37 -25 101 -70 142 -100 140 -104 806 -570 813 -570 8
0 8 44 0 64 -3 9 -10 16 -15 16 -6 0 -15 5 -22 10 -7 6 -39 28 -72 50 -138 91
-176 118 -305 208 -74 53 -136 99 -138 104 -2 4 -8 8 -13 8 -11 0 -129 77
-214 140 -76 56 -232 160 -240 160 -4 0 -25 13 -48 28 -53 35 -129 87 -187
126 -25 17 -46 34 -48 38 -2 4 -8 8 -13 8 -6 0 -15 5 -22 10 -56 47 -74 60
-85 60 -7 0 -24 11 -38 25 -13 13 -28 25 -32 25 -4 1 -18 9 -32 20 -14 10 -63
46 -110 78 -106 75 -150 114 -143 126 4 5 -3 7 -15 4 -13 -4 -26 0 -34 10 -11
13 -10 15 5 9 15 -6 17 -3 11 15 -5 16 -3 20 9 15 11 -4 14 -2 10 9 -7 18 -19
18 -27 -1 -3 -8 -16 -15 -28 -15 -19 0 -20 2 -8 10 13 9 13 10 -1 10 -8 0 -26
11 -39 25 -20 22 -25 23 -33 10 -7 -13 -15 -11 -52 15 -24 17 -48 36 -52 43
-4 7 -24 25 -43 41 -27 22 -30 27 -12 22 12 -4 37 -9 54 -12 17 -2 34 -7 37
-11 3 -5 23 -17 44 -28 21 -11 52 -32 70 -47 38 -33 47 -34 111 -9 56 21 76
43 76 83 0 16 13 54 29 86 54 109 74 181 77 282 5 133 -19 247 -71 336 -31 53
-106 134 -124 134 -8 0 -22 6 -30 14 -40 36 -123 67 -194 73 -53 5 -65 9 -47
14 19 5 21 7 6 8 -26 1 -137 -38 -155 -55 -13 -11 -12 -14 5 -21 22 -8 114
-72 114 -80 0 -2 -10 -1 -21 2 -28 9 -22 -13 9 -33 20 -13 22 -13 22 2 0 9 4
16 9 16 14 0 56 -42 64 -62 3 -10 11 -18 16 -18 6 0 8 -7 5 -14 -4 -10 6 -20
32 -31 35 -15 36 -16 18 -29 -18 -14 -18 -15 -1 -21 9 -4 23 -5 31 -2 20 8 36
-15 29 -41 -3 -12 -1 -28 5 -35 15 -17 27 -97 15 -97 -5 0 -14 5 -21 12 -9 9
-12 7 -12 -9 0 -12 5 -25 10 -28 9 -5 -43 -61 -115 -123 -8 -7 -15 -21 -15
-32 0 -10 -12 -27 -27 -38 -54 -37 -56 -37 -51 -8 4 19 0 29 -13 37 -13 6 -19
6 -19 -1 0 -5 -6 -10 -14 -10 -7 0 -16 -13 -19 -28 -3 -16 -17 -34 -31 -42
-24 -12 -28 -11 -50 15 -23 27 -56 30 -56 5 0 -5 -6 -10 -14 -10 -9 0 -13 -7
-11 -20 5 -26 -11 -34 -65 -35 -43 0 -45 1 -45 30 0 16 7 35 15 42 19 15 -1
39 -25 29 -13 -4 -15 -13 -10 -36 7 -32 -11 -60 -39 -60 -18 0 -20 13 -6 40
18 34 -10 34 -45 0 -22 -21 -39 -30 -50 -26 -15 5 -15 7 0 22 9 9 14 18 12 20
-8 9 -58 -16 -63 -31 -4 -8 -10 -15 -15 -15 -17 0 -9 21 16 44 27 26 32 42 13
49 -10 3 -10 7 -1 19 7 8 10 18 6 21 -11 12 -41 8 -46 -5 -3 -7 -6 1 -6 19 -1
42 -17 50 -52 24 -30 -22 -59 -28 -59 -11 0 6 -7 10 -15 10 -13 0 -13 3 -3 20
7 10 9 22 6 25 -13 13 -49 -7 -64 -37 -11 -22 -18 -27 -24 -18 -4 7 -13 9 -19
6 -6 -4 -11 0 -11 8 0 9 5 16 12 16 6 0 9 2 6 5 -14 14 -38 -9 -38 -37 0 -16
-4 -27 -9 -24 -5 3 -7 20 -6 37 2 22 0 28 -8 20 -16 -16 -30 -13 -23 5 5 12 0
15 -22 12 -21 -2 -27 -8 -27 -27 0 -35 -15 -35 -55 0 -19 16 -47 37 -62 47
-34 20 -35 26 -5 47 17 12 19 17 8 24 -8 5 -11 16 -7 29 8 24 -11 39 -27 23
-18 -18 -33 -13 -46 15 -8 19 -17 25 -31 21 -16 -4 -19 0 -16 24 2 16 -3 34
-10 40 -8 6 -15 9 -15 5 -1 -3 -3 -10 -4 -16 -1 -5 -3 -26 -4 -45 0 -19 -6
-35 -12 -35 -6 0 -41 21 -77 47 l-65 46 26 23 c34 29 34 42 -3 78 -21 21 -27
33 -20 41 10 12 4 45 -9 45 -3 0 -12 -9 -18 -19 -7 -11 -20 -17 -30 -15 -10 3
-30 -6 -45 -21 l-27 -25 -58 54 c-50 47 -56 56 -44 70 7 9 10 16 5 17 -5 0 1
4 14 9 35 15 36 35 2 69 -17 17 -34 31 -36 31 -3 0 -12 7 -20 15 -21 21 -29
19 -60 -12 -23 -23 -28 -24 -38 -12 -6 9 -28 36 -49 62 -45 53 -43 82 3 92 17
4 30 9 30 11 0 3 -12 21 -27 40 -33 43 -21 61 25 38 19 -9 32 -23 32 -34 0
-10 4 -21 9 -25 15 -9 24 14 12 29 -8 10 -8 22 -1 41 12 30 5 49 -16 41 -19
-7 -26 8 -14 38 9 24 7 26 -18 25 -47 -2 -62 -10 -62 -31 0 -17 4 -20 30 -14
22 4 30 2 30 -9 0 -8 7 -18 16 -23 9 -5 14 -14 10 -20 -8 -14 -46 -3 -46 14 0
19 -10 18 -25 -3 -13 -17 -14 -17 -33 0 -22 20 -67 15 -76 -9 -9 -24 -24 -15
-52 32 -15 25 -30 41 -33 36 -3 -5 -16 -12 -27 -16 -31 -9 -36 14 -12 52 25
41 68 45 68 8 0 -23 3 -24 30 -16 25 7 34 5 49 -12 12 -12 25 -17 32 -13 9 6
7 11 -6 21 -10 7 -17 26 -17 41 0 15 -6 39 -13 53 -19 36 -75 185 -75 198 0 7
-4 12 -9 12 -5 0 -16 6 -23 13 -8 6 -23 17 -33 23 -14 8 -21 24 -23 55 -3 49
-9 60 -22 39 -5 -9 -5 -19 2 -27 7 -9 7 -13 -1 -13 -6 0 -14 7 -17 15 -7 18
-54 20 -54 3 0 -9 -3 -8 -9 2 -6 8 -7 18 -4 24 3 5 1 6 -4 3 -13 -8 -37 19
-29 32 4 6 14 7 23 4 13 -5 15 -2 10 11 -4 10 -7 22 -7 27 0 5 -19 9 -42 9
-24 0 -50 5 -58 10 -12 7 -11 13 9 34 13 14 28 23 32 20 5 -3 6 2 3 11 -5 11
-14 15 -28 11 -11 -3 -30 -6 -41 -7 -11 0 -14 -3 -7 -6 6 -2 12 -13 12 -24 0
-15 -5 -18 -32 -12 -47 8 -63 27 -60 70 3 45 7 50 27 33 12 -10 15 -10 15 3 0
9 -4 18 -9 21 -11 7 -2 46 11 46 5 0 7 9 3 19 -3 11 -1 22 4 26 7 4 7 14 1 31
-16 40 -13 64 6 57 14 -5 15 -1 9 28 -4 19 -12 39 -17 46 -6 7 -5 14 2 18 5 3
10 17 10 31 0 33 -17 22 -29 -19 -9 -31 -9 -30 -10 16 -1 31 -5 46 -12 42 -6
-4 -13 2 -16 14 -3 12 -9 21 -14 21 -5 0 -14 12 -19 26 -14 36 -35 24 -35 -20
0 -32 -1 -35 -12 -19 -10 13 -16 14 -25 5 -14 -14 13 -49 42 -54 17 -3 17 -5
4 -23 -11 -15 -17 -17 -23 -7 -6 10 -11 10 -21 -3 -10 -12 -10 -19 -2 -27 9
-9 12 -9 12 1 0 9 8 11 25 7 18 -5 25 -2 25 9 0 8 5 15 10 15 6 0 10 -4 10 -9
0 -14 -61 -86 -71 -83 -13 3 -11 -7 3 -22 10 -10 16 -8 33 11 14 17 26 22 38
17 16 -6 14 -9 -13 -26 -23 -14 -31 -24 -27 -38 3 -11 1 -23 -4 -26 -5 -3 -9
2 -9 10 0 9 -6 16 -14 16 -19 0 -28 27 -20 66 5 27 3 34 -10 34 -9 0 -16 -6
-17 -12 -1 -7 -4 -2 -8 12 -4 14 -3 35 2 47 5 12 7 29 3 38 -5 14 -9 15 -21 5
-9 -7 -17 -11 -18 -9 -1 2 -8 15 -15 30 -8 14 -27 40 -43 57 -17 18 -36 43
-42 55 -7 12 -40 48 -74 80 -68 62 -106 72 -150 42 -20 -14 -24 -14 -42 7 -12
12 -21 26 -21 31 0 5 -31 7 -69 5 -58 -4 -70 -2 -80 14 -13 21 -56 25 -48 4z
m387 -216 c0 -5 -8 -14 -17 -20 -16 -10 -15 -11 5 -7 18 4 28 -3 48 -35 14
-22 28 -47 31 -56 3 -9 -4 -2 -16 16 -11 17 -24 32 -28 31 -40 -6 -75 39 -53
66 14 17 30 20 30 5z m-147 -65 c4 -8 2 -17 -3 -20 -6 -4 -10 -4 -10 -1 0 2
-3 11 -6 20 -3 9 -2 16 4 16 5 0 12 -7 15 -15z m-261 -47 c-7 -7 -12 -8 -12
-2 0 14 12 26 19 19 2 -3 -1 -11 -7 -17z m168 -6 c0 -15 -2 -15 -10 -2 -13 20
-13 33 0 25 6 -3 10 -14 10 -23z m-29 -19 c8 -9 9 -14 3 -10 -20 12 -24 -20
-7 -53 10 -21 20 -29 30 -26 12 5 14 1 8 -21 -10 -43 -22 -48 -39 -15 -8 16
-13 32 -10 35 3 3 -6 13 -21 23 -23 15 -28 15 -37 3 -6 -10 -7 -7 -2 11 9 32
36 69 50 70 6 0 18 -8 25 -17z m-155 -20 c-6 -15 -8 -15 -16 -3 -8 13 -10 13
-10 -1 0 -9 8 -20 17 -23 12 -5 14 -9 5 -18 -13 -13 -16 -29 -4 -26 12 2 42
-14 42 -23 0 -5 -6 -9 -14 -9 -8 0 -21 -9 -29 -20 -14 -20 -14 -20 -31 5 -10
15 -14 34 -11 45 4 11 3 29 0 41 -5 16 -10 18 -21 8 -17 -14 -18 -36 -3 -41 7
-2 6 -8 -3 -16 -12 -9 -15 -9 -16 3 -1 8 -3 22 -4 30 -1 8 -5 15 -10 15 -18 0
-23 -2 -20 -11 1 -5 -2 -9 -8 -9 -31 0 15 56 52 65 29 6 82 11 87 8 2 -1 0
-10 -3 -20z m404 -9 c0 -8 -4 -12 -10 -9 -5 3 -10 10 -10 16 0 5 5 9 10 9 6 0
10 -7 10 -16z m-26 -10 c3 -8 2 -12 -4 -9 -6 3 -10 10 -10 16 0 14 7 11 14 -7z
m-544 -24 c0 -5 -2 -10 -4 -10 -3 0 -8 5 -11 10 -3 6 -1 10 4 10 6 0 11 -4 11
-10z m-320 -10 c0 -5 -2 -10 -4 -10 -3 0 -8 5 -11 10 -3 6 -1 10 4 10 6 0 11
-4 11 -10z m100 -63 c0 -16 -6 -30 -16 -34 -20 -7 -36 16 -28 41 6 19 12 44
14 61 2 21 29 -41 30 -68z m205 53 c3 -5 2 -10 -4 -10 -5 0 -13 5 -16 10 -3 6
-2 10 4 10 5 0 13 -4 16 -10z m-30 -9 c3 -5 0 -13 -6 -17 -7 -4 -9 -3 -5 4 3
5 0 13 -6 15 -9 4 -10 6 -1 6 6 1 14 -3 18 -8z m90 -21 c-3 -5 -13 -10 -21
-10 -8 0 -12 5 -9 10 3 6 13 10 21 10 8 0 12 -4 9 -10z m-49 -9 c-6 -9 -46
-22 -46 -15 0 3 10 9 23 14 29 11 29 11 23 1z m-13 -51 c-4 -14 -14 -20 -34
-20 -35 0 -38 13 -6 28 34 16 46 14 40 -8z m231 4 c10 -25 7 -56 -4 -49 -6 4
-10 14 -8 23 1 10 -1 23 -5 30 -5 6 -4 12 1 12 6 0 13 -7 16 -16z m196 -10 c0
-17 -27 -18 -58 -1 -21 12 -20 13 18 14 29 2 40 -2 40 -13z m-255 -14 c-3 -5
-11 -10 -16 -10 -6 0 -7 5 -4 10 3 6 11 10 16 10 6 0 7 -4 4 -10z m684 -55 c1
-23 -2 -26 -9 -15 -5 8 -9 31 -9 50 0 29 2 31 9 15 5 -11 9 -33 9 -50z m-592
28 c1 -19 -1 -22 -8 -12 -11 17 -12 39 -1 39 4 0 8 -12 9 -27z m-287 6 c0 -6
10 -24 21 -41 17 -23 24 -27 30 -16 6 9 9 8 9 -7 0 -12 -6 -27 -12 -33 -10
-10 -10 -15 1 -21 10 -7 11 -13 2 -27 -10 -18 -10 -18 -11 0 0 11 -3 17 -6 13
-3 -3 -3 -15 1 -26 5 -17 10 -19 30 -9 19 8 27 7 40 -6 16 -15 15 -18 -7 -36
-56 -47 -158 -78 -158 -49 0 7 -20 34 -46 61 -25 26 -42 53 -39 58 3 6 -1 20
-9 32 -9 12 -16 29 -16 38 0 13 1 13 10 0 8 -13 10 -13 10 -1 0 21 40 61 61
61 29 0 30 -38 1 -59 l-26 -18 23 -8 c12 -4 28 -2 35 4 11 9 17 3 30 -29 17
-44 30 -50 45 -21 8 14 7 22 -4 31 -8 7 -15 23 -15 36 0 17 -8 28 -27 37 -53
23 -57 47 -8 47 19 0 35 -5 35 -11z m-436 -29 c-6 -6 -10 -2 -11 12 -2 16 1
18 10 9 7 -7 8 -14 1 -21z m471 20 c3 -5 1 -10 -4 -10 -6 0 -11 5 -11 10 0 6
2 10 4 10 3 0 8 -4 11 -10z m920 1 c9 -16 -9 -20 -23 -5 -10 12 -10 14 2 14 8
0 17 -4 21 -9z m-1135 -25 c0 -2 -8 -10 -17 -17 -16 -13 -17 -12 -4 4 13 16
21 21 21 13z m1120 -36 c0 -5 -4 -10 -10 -10 -5 0 -10 5 -10 10 0 6 5 10 10
10 6 0 10 -4 10 -10z m-1171 -21 c-21 -13 -3 -22 19 -10 18 10 21 7 27 -29 4
-21 3 -45 -2 -52 -11 -19 -11 -29 5 -67 7 -18 11 -35 9 -37 -5 -5 -74 145 -79
171 -4 22 12 46 26 38 4 -3 2 -9 -5 -14z m431 0 c0 -5 -7 -9 -15 -9 -9 0 -12
6 -9 15 6 15 24 11 24 -6z m-100 -34 c0 -8 -4 -15 -9 -15 -13 0 -22 16 -14 24
11 11 23 6 23 -9z m62 -17 c-7 -7 -12 -8 -12 -2 0 14 12 26 19 19 2 -3 -1 -11
-7 -17z m808 -18 c0 -5 -2 -10 -4 -10 -3 0 -8 5 -11 10 -3 6 -1 10 4 10 6 0
11 -4 11 -10z m-732 -36 c0 -17 -4 -22 -11 -15 -5 5 -7 17 -4 25 9 23 15 19
15 -10z m282 -146 c0 -8 -77 -48 -92 -48 -5 0 -22 -15 -39 -32 -30 -34 -38
-27 -16 14 7 14 18 23 24 21 6 -2 13 6 15 19 2 18 9 23 30 21 18 -1 28 4 31
18 5 18 8 19 26 7 12 -7 21 -16 21 -20z m-355 -37 c-3 -2 -5 1 -5 7 0 7 -7 12
-15 12 -18 0 -19 12 -3 28 10 10 14 7 20 -15 4 -15 5 -29 3 -32z m-36 -32 c1
-23 -4 -27 -41 -33 -45 -7 -64 3 -54 29 4 12 12 15 24 10 38 -16 62 -17 62 -3
0 8 -5 19 -11 25 -6 6 -8 17 -3 24 9 16 22 -13 23 -52z m-109 7 c0 -3 -4 -8
-10 -11 -5 -3 -10 -1 -10 4 0 6 5 11 10 11 6 0 10 -2 10 -4z m1314 -80 c3 -12
15 -33 26 -46 11 -13 20 -33 20 -45 0 -18 -4 -21 -25 -17 -16 3 -25 0 -25 -8
0 -9 -3 -10 -14 -1 -17 15 -17 151 1 144 6 -2 14 -15 17 -27z m-1122 -67 c-19
-7 -27 4 -18 28 6 14 8 14 21 -3 12 -17 11 -20 -3 -25z m1030 -31 c-2 -21 -8
-35 -13 -32 -13 8 -11 48 3 62 15 15 16 14 10 -30z m-1007 12 c3 -6 -4 -10
-17 -10 -18 0 -20 2 -8 10 19 12 18 12 25 0z m305 -24 c0 -2 -7 -7 -16 -10 -8
-3 -12 -2 -9 4 6 10 25 14 25 6z m683 -48 c13 -13 28 -34 32 -48 14 -46 46
-102 73 -128 15 -14 21 -22 14 -18 -16 9 -79 -11 -85 -27 -3 -8 -19 -11 -45
-9 -39 4 -41 6 -78 80 -22 44 -37 88 -36 102 5 37 30 61 58 54 15 -4 24 -2 24
5 0 17 17 13 43 -11z m-1353 -28 c0 -11 -2 -20 -5 -20 -2 0 -9 9 -15 20 -9 16
-8 20 5 20 8 0 15 -9 15 -20z m39 -29 c-2 -6 -10 2 -17 17 -11 25 -11 25 4 10
9 -9 15 -21 13 -27z m5 -46 c-4 -8 -10 -15 -15 -15 -5 0 -9 7 -9 15 0 8 7 15
15 15 9 0 12 -6 9 -15z m272 -250 c-11 -8 -27 -27 -37 -42 l-18 -27 -12 27
c-18 41 -6 57 43 57 40 -1 42 -2 24 -15z m144 -66 c0 -14 -13 -10 -40 11 l-25
20 33 -11 c17 -6 32 -15 32 -20z m-350 -9 c0 -5 -4 -10 -9 -10 -6 0 -13 5 -16
10 -3 6 1 10 9 10 9 0 16 -4 16 -10z m104 -30 c20 -51 20 -60 -2 -60 -18 0
-52 47 -52 73 0 14 12 24 31 26 4 1 14 -17 23 -39z m116 -42 c-2 -37 -28 -122
-39 -126 -15 -5 -10 41 10 106 10 31 29 45 29 20z m1327 -68 c3 -11 9 -20 13
-20 5 0 11 -9 15 -19 4 -12 12 -18 21 -14 10 3 12 0 8 -10 -7 -18 12 -31 46
-31 20 -1 26 -7 28 -29 2 -18 13 -32 33 -42 16 -9 29 -22 29 -30 0 -8 8 -15
18 -15 9 0 41 -18 70 -40 29 -22 55 -40 57 -40 3 0 15 -9 27 -20 13 -10 31
-25 40 -32 15 -12 14 -20 -20 -108 -20 -52 -40 -100 -45 -107 -10 -15 -577
173 -577 192 0 8 34 82 75 164 54 108 81 151 93 151 27 -1 87 -35 85 -48 -2
-7 4 -12 13 -12 11 0 14 5 9 18 -4 9 -9 25 -12 34 -3 10 -13 17 -22 16 -38 -3
-52 3 -49 20 1 9 -1 23 -5 30 -6 8 0 12 18 12 18 0 29 -6 32 -20z m-1042 -100
c3 -5 1 -10 -4 -10 -6 0 -11 5 -11 10 0 6 2 10 4 10 3 0 8 -4 11 -10z m-172
-28 c3 -9 16 -34 28 -55 23 -37 23 -37 4 -51 -37 -26 -62 -51 -74 -73 -16 -31
-22 -29 -48 17 -27 46 -29 70 -7 113 33 65 84 91 97 49z m222 -60 c-3 -7 0
-10 5 -7 6 3 10 1 10 -4 0 -15 -25 -14 -38 2 -5 6 -13 23 -17 36 l-7 24 26
-19 c14 -11 23 -25 21 -32z m-74 -242 c28 -57 28 -70 3 -70 -8 0 -39 -18 -68
-40 l-54 -39 -17 37 c-9 20 -23 49 -31 64 -7 14 -14 31 -14 36 0 26 97 73 140
69 8 -1 27 -27 41 -57z m184 -34 c14 -45 14 -46 -8 -42 -35 5 -64 76 -32 76 8
0 15 5 15 12 0 21 11 1 25 -46z m2105 -116 c0 -5 -5 -10 -11 -10 -5 0 -7 5 -4
10 3 6 8 10 11 10 2 0 4 -4 4 -10z m-152 -22 c-4 -27 -23 -34 -32 -13 -8 21 1
35 20 35 10 0 14 -8 12 -22z m192 -7 c0 -5 -8 -19 -19 -32 -16 -20 -21 -21
-35 -10 -14 12 -13 15 7 32 23 20 47 25 47 10z m-2222 -89 c13 -23 27 -55 32
-71 7 -27 6 -29 -32 -42 -21 -7 -42 -17 -46 -23 -4 -6 -18 -16 -32 -22 -20 -9
-28 -8 -38 2 -7 8 -9 14 -5 14 4 0 3 4 -4 8 -6 4 -14 19 -17 32 -2 14 -8 36
-13 49 -11 27 11 57 62 84 44 23 67 16 93 -31z m2913 34 c-7 -8 -16 -27 -21
-43 -7 -25 -8 -26 -9 -5 -1 28 16 62 31 62 7 0 7 -5 -1 -14z m-916 -75 c7 -12
-12 -24 -25 -16 -11 7 -4 25 10 25 5 0 11 -4 15 -9z m879 -56 c-4 -8 -8 -15
-10 -15 -2 0 -4 7 -4 15 0 8 4 15 10 15 5 0 7 -7 4 -15z m-3530 -240 c-4 -8
-11 -12 -16 -9 -6 4 -5 10 3 15 19 12 19 11 13 -6z m3466 -13 c0 -18 -26 -62
-34 -59 -5 2 -20 17 -34 35 l-25 32 47 0 c25 0 46 -4 46 -8z m-3404 -24 c4 -7
4 -10 -1 -6 -4 4 -14 3 -22 -3 -13 -11 -19 2 -6 14 10 11 21 8 29 -5z m884
-429 c5 -9 5 -20 0 -25 -6 -6 -3 -24 10 -48 l19 -39 -27 -28 c-15 -16 -30 -29
-34 -29 -10 0 -68 127 -68 148 0 10 5 23 12 30 17 17 78 11 88 -9z m99 -72
c25 -70 25 -67 2 -67 -20 0 -37 42 -25 62 4 5 1 14 -6 18 -7 4 -14 23 -16 41
-4 29 -2 31 10 19 7 -8 23 -41 35 -73z m93 -247 c46 -68 47 -80 7 -80 -27 0
-91 37 -111 65 -18 24 21 79 52 73 8 -2 32 -28 52 -58z m2838 50 c0 -5 -6 -10
-14 -10 -8 0 -18 5 -21 10 -3 6 3 10 14 10 12 0 21 -4 21 -10z m124 -5 c3 -8
1 -15 -3 -15 -5 0 -11 7 -15 15 -3 8 -1 15 3 15 5 0 11 -7 15 -15z m-4913 -28
c-1 -12 -15 -9 -19 4 -3 6 1 10 8 8 6 -3 11 -8 11 -12z m1799 -56 c0 -5 -7
-11 -15 -15 -9 -3 -15 0 -15 9 0 8 7 15 15 15 8 0 15 -4 15 -9z m39 -5 c9 -10
8 -15 -4 -20 -10 -4 -15 1 -15 14 0 24 4 25 19 6z m-548 -48 c11 -13 33 -47
50 -75 38 -64 78 -100 124 -109 19 -3 35 -10 35 -16 0 -5 5 -6 10 -3 6 3 13
-1 17 -10 6 -17 -11 -35 -31 -31 -6 1 -29 11 -51 21 -22 10 -58 23 -80 29 -36
10 -41 16 -53 56 -8 25 -22 71 -31 103 -10 31 -16 57 -14 57 3 0 14 -10 24
-22z m577 -5 c-2 -9 -18 -25 -36 -35 l-33 -18 3 22 c2 12 14 28 28 35 34 17
42 16 38 -4z m-2078 -23 c0 -5 -2 -10 -4 -10 -3 0 -8 5 -11 10 -3 6 -1 10 4
10 6 0 11 -4 11 -10z m-170 -25 c0 -19 5 -19 33 0 17 11 31 12 54 6 17 -5 34
-7 37 -3 3 3 6 0 6 -8 0 -24 -101 -150 -126 -156 -18 -5 -24 -12 -22 -28 3
-18 -3 -21 -33 -24 -49 -4 -66 17 -49 58 7 17 10 33 7 37 -4 3 -9 -2 -13 -11
-10 -26 -20 -19 -35 26 -11 34 -11 42 0 46 10 3 10 6 1 12 -8 5 -7 9 4 13 9 4
16 2 16 -3 0 -6 20 -10 45 -10 25 0 45 5 45 10 0 6 -11 10 -24 10 -14 0 -27 4
-30 9 -3 4 5 6 18 4 14 -3 29 2 37 11 18 20 29 20 29 1z m440 -44 l35 -30 -43
-1 c-37 0 -44 4 -52 26 -24 62 -9 63 60 5z m2649 30 c13 -8 13 -12 0 -27 -13
-16 -12 -17 11 -10 51 14 100 19 100 8 0 -13 58 -36 84 -33 23 3 76 -18 76
-30 0 -5 12 -14 28 -20 15 -7 22 -13 15 -16 -18 -7 -16 -23 2 -23 8 0 15 5 15
12 0 6 3 9 6 6 3 -3 0 -15 -7 -25 -8 -14 -20 -18 -40 -15 -17 3 -29 0 -29 -7
0 -10 16 -15 47 -14 9 1 38 -55 30 -58 -1 0 -14 -2 -29 -4 -22 -3 -28 0 -28
16 0 23 -34 26 -56 5 -12 -12 -10 -17 11 -38 28 -27 31 -38 10 -38 -24 0 -17
-29 8 -35 39 -10 56 -75 20 -75 -9 0 -13 -3 -9 -7 4 -5 17 -8 28 -8 12 0 22
-7 24 -17 2 -15 -1 -16 -18 -7 -15 8 -24 7 -39 -7 -22 -20 -15 -37 12 -29 11
4 19 2 19 -4 0 -21 37 -10 48 14 15 33 36 32 70 -5 30 -30 77 -41 84 -18 3 9
12 9 38 0 27 -10 38 -9 57 3 24 16 43 13 43 -7 0 -6 15 -28 34 -49 24 -26 33
-44 29 -58 -4 -17 -8 -19 -19 -10 -8 6 -11 15 -8 20 3 5 0 9 -6 9 -7 0 -25 11
-42 25 -34 29 -56 32 -65 9 -6 -17 41 -63 65 -64 6 0 12 -4 12 -9 0 -5 -10 -7
-22 -3 -14 3 -19 2 -14 -6 4 -7 14 -12 22 -12 8 0 14 -9 14 -19 0 -10 8 -22
17 -25 11 -5 13 -10 7 -14 -6 -4 -14 -14 -18 -22 -4 -8 -12 -25 -19 -37 -13
-21 -13 -21 -29 10 -9 18 -23 49 -32 69 -17 37 -17 38 -41 22 -15 -10 -34 -14
-49 -10 -35 9 -43 -12 -9 -25 38 -14 73 -48 66 -65 -3 -8 0 -21 7 -29 14 -17
8 -18 -39 -9 -21 4 -31 12 -31 25 0 27 -18 32 -30 9 -14 -27 4 -53 31 -45 11
4 19 2 19 -4 0 -6 -5 -11 -11 -11 -5 0 -8 -4 -5 -9 3 -5 -1 -12 -10 -15 -8 -3
-12 -10 -9 -16 4 -6 -6 -10 -24 -10 -18 0 -31 5 -31 13 -1 7 -6 5 -14 -5 -7
-10 -17 -18 -22 -18 -4 0 -3 5 4 12 19 19 14 45 -10 62 -12 9 -25 16 -28 16
-11 0 -4 -71 9 -79 9 -6 10 -11 2 -15 -6 -4 -9 -11 -6 -15 5 -9 -22 -35 -46
-43 -17 -7 -43 27 -34 42 4 6 14 10 25 10 21 0 36 46 21 64 -12 14 -3 86 11
86 5 0 -4 12 -21 26 -17 14 -31 31 -30 38 3 27 -3 37 -33 56 -42 25 -48 25
-48 -1 0 -16 5 -20 20 -16 16 4 20 0 20 -19 0 -13 -3 -23 -7 -23 -23 4 -24 -4
-4 -25 23 -25 21 -49 -3 -40 -16 6 -29 -23 -19 -39 26 -42 11 -81 -37 -96 -67
-20 -108 16 -84 75 13 30 12 35 -9 61 -13 15 -27 36 -30 46 -9 25 -29 17 -40
-18 -8 -22 -6 -31 7 -40 9 -7 16 -22 16 -34 0 -16 -6 -21 -25 -21 -14 0 -25 4
-25 9 0 10 -30 24 -37 17 -10 -10 10 -46 25 -46 22 0 89 -24 99 -35 5 -4 -9
-5 -30 -2 -20 3 -35 2 -32 -3 8 -12 -25 -17 -57 -9 -29 8 -38 3 -38 -18 0 -7
8 -13 18 -13 23 0 47 -51 29 -62 -6 -4 -21 -5 -31 -2 -30 10 -85 16 -166 18
-85 3 -159 21 -166 40 -3 7 4 41 15 74 23 67 26 85 11 62 -7 -11 -10 -6 -9 20
0 39 14 158 23 205 8 37 8 289 0 330 -19 110 -18 118 21 153 26 24 48 35 78
37 88 8 213 32 242 47 37 20 37 20 54 9z m-1175 -9 c6 -10 -22 -47 -30 -40 -3
4 -3 16 1 27 6 21 20 27 29 13z m344 -76 c7 -4 12 -2 12 6 0 8 3 9 8 3 14 -19
82 -46 82 -32 0 6 5 4 11 -6 8 -14 8 -22 -1 -30 -8 -9 -10 -8 -4 6 5 15 3 16
-21 7 -34 -13 -175 -13 -175 0 0 6 3 9 8 8 19 -4 42 16 37 32 -6 18 18 21 43
6z m-2417 -103 c-6 -13 -15 -23 -21 -23 -5 0 -10 -6 -10 -13 0 -8 -15 -31 -34
-53 l-33 -39 -12 53 -11 53 47 66 47 66 19 -44 c14 -33 16 -49 8 -66z m2446
12 c-4 -8 -14 -15 -23 -15 -16 0 -16 2 1 20 20 22 31 20 22 -5z m68 -5 c4 -6
-5 -10 -19 -10 -14 0 -26 5 -26 10 0 6 9 10 19 10 11 0 23 -4 26 -10z m1085
-10 c0 -5 -2 -10 -4 -10 -3 0 -8 5 -11 10 -3 6 -1 10 4 10 6 0 11 -4 11 -10z
m-3541 -42 c12 -18 14 -18 32 -2 29 26 34 9 8 -28 -68 -98 -90 -118 -129 -118
-33 0 -38 3 -43 27 -4 21 5 40 38 83 46 60 71 70 94 38z m-173 -53 c17 -41 18
-55 3 -55 -10 0 -39 59 -39 80 0 23 22 8 36 -25z m3766 13 c13 -16 18 -33 16
-55 -3 -23 0 -33 12 -36 9 -1 2 -8 -17 -14 -19 -7 -33 -8 -33 -2 0 5 4 9 9 9
5 0 7 9 4 20 -6 23 -5 22 -27 14 -12 -5 -14 -10 -6 -19 7 -9 8 -15 1 -19 -5
-4 -22 14 -37 39 -28 49 -27 70 3 36 25 -30 47 -28 39 4 -6 25 -1 45 11 45 3
0 14 -10 25 -22z m-3737 -98 c3 -5 1 -10 -4 -10 -6 0 -11 5 -11 10 0 6 2 10 4
10 3 0 8 -4 11 -10z m253 -27 c6 -16 22 -61 37 -102 l26 -74 -21 -14 c-11 -8
-29 -24 -40 -35 -18 -19 -18 -24 -5 -55 8 -20 13 -39 10 -43 -3 -5 -1 -10 4
-12 10 -3 91 -201 91 -222 0 -21 -68 -76 -94 -76 -45 0 -86 71 -101 174 -6 39
-5 46 9 46 26 0 31 29 8 46 -12 8 -19 21 -15 29 8 23 -14 43 -43 37 -21 -4
-25 -1 -22 14 2 10 10 20 18 21 8 1 36 5 63 8 64 8 60 25 -5 18 l-52 -6 37 50
c25 35 34 56 30 71 -3 12 -8 22 -12 22 -4 0 -8 19 -10 41 -4 72 64 120 87 62z
m3480 -6 c-1 -2 3 -12 11 -21 10 -12 11 -20 3 -28 -12 -12 -35 -1 -27 13 4 5
-1 12 -11 16 -16 6 -16 7 1 20 16 11 32 12 23 0z m102 3 c22 -6 23 -8 6 -15
-10 -5 -21 -4 -25 2 -3 6 -13 13 -21 16 -24 9 9 7 40 -3z m-3720 -65 c0 -5 -5
-3 -10 5 -5 8 -10 20 -10 25 0 6 5 3 10 -5 5 -8 10 -19 10 -25z m3709 -4 c9
-6 10 -10 2 -16 -16 -9 -44 2 -36 15 8 12 16 12 34 1z m-219 -366 c0 -16 -17
-19 -44 -9 -22 9 -10 24 20 24 15 0 24 -6 24 -15z m-3747 -16 c-7 -7 -20 -8
-34 -3 -23 8 -23 8 6 14 35 7 43 4 28 -11z m2794 -45 c-3 -3 -12 -4 -19 -1 -8
3 -5 6 6 6 11 1 17 -2 13 -5z m153 -44 c16 -19 27 -36 24 -39 -3 -3 -8 -1 -12
4 -8 12 -69 55 -77 55 -3 0 -5 -15 -5 -32 -1 -31 -1 -32 -15 -14 -8 11 -15 29
-15 41 0 18 6 21 35 20 28 0 43 -9 65 -35z m71 -13 c-12 -12 -40 3 -34 18 4
11 9 12 24 2 10 -6 15 -15 10 -20z m-2344 12 c15 -15 5 -39 -17 -39 -13 0 -16
6 -12 25 5 27 12 31 29 14z m1358 -9 c-3 -5 1 -10 9 -10 9 0 16 -4 16 -10 0
-5 -4 -10 -9 -10 -13 0 -32 26 -24 33 10 10 15 8 8 -3z m1417 -2 c-9 -9 -15
-9 -24 0 -9 9 -7 12 12 12 19 0 21 -3 12 -12z m-2923 -65 c26 -74 102 -268
111 -285 6 -10 5 -28 -3 -47 -9 -25 -9 -36 1 -52 11 -18 3 -31 -85 -134 -54
-62 -103 -114 -109 -114 -12 -1 -34 41 -34 65 0 9 -16 63 -35 121 -28 84 -35
121 -34 177 1 99 7 113 68 160 42 32 58 52 73 94 11 28 23 52 27 52 4 0 13
-17 20 -37z m149 5 c2 -12 -34 -38 -53 -38 -11 0 -4 25 13 41 19 20 36 19 40
-3z m2812 7 c13 -16 40 -20 40 -6 0 8 93 4 120 -6 28 -11 -43 -19 -115 -13
-56 4 -70 8 -73 23 -4 21 11 22 28 2z m-2644 -104 c-18 -17 -21 -15 -30 17 -7
21 -6 22 19 10 23 -10 24 -13 11 -27z m43 -100 c8 -5 11 -16 8 -26 -8 -20 -23
-13 -30 15 -6 22 0 25 22 11z m41 -132 c0 -6 7 -8 16 -5 11 4 14 1 12 -12 -5
-24 -29 -21 -39 6 -5 13 -5 22 1 22 6 0 10 -5 10 -11z m-252 -51 c7 -16 8 -28
2 -28 -12 0 -30 34 -30 56 0 22 12 9 28 -28z m338 -98 c12 0 12 -4 4 -20 -14
-27 -24 -25 -39 6 -10 23 -10 26 4 20 9 -3 23 -6 31 -6z m-391 -151 c-4 -5
-13 -9 -21 -9 -12 0 -12 2 -2 14 14 15 32 11 23 -5z m-205 -38 c0 -4 -11 -18
-24 -30 l-24 -23 -7 22 c-4 13 -3 25 4 29 15 10 51 11 51 2z m150 -6 c-7 -9
-15 -13 -19 -10 -3 3 1 10 9 15 21 14 24 12 10 -5z"/>
<path d="M1986 5751 c-3 -5 -14 -7 -25 -4 -22 6 -31 -14 -20 -44 14 -39 33
-29 49 27 8 30 7 39 -4 21z"/>
<path d="M2080 5430 c0 -5 7 -10 16 -10 8 0 12 5 9 10 -3 6 -10 10 -16 10 -5
0 -9 -4 -9 -10z"/>
<path d="M3670 4510 c-13 -8 -12 -10 3 -10 9 0 17 5 17 10 0 12 -1 12 -20 0z"/>
<path d="M3676 2606 c3 -8 15 -11 30 -8 21 4 24 1 24 -23 0 -36 34 -31 38 6 3
22 -2 27 -29 33 -50 10 -69 8 -63 -8z"/>
<path d="M3913 2588 c-8 -10 -8 -18 3 -32 12 -17 14 -17 20 -3 3 9 2 23 -3 32
-8 13 -12 14 -20 3z"/>
<path d="M3522 2559 c2 -7 10 -15 17 -17 8 -3 12 1 9 9 -2 7 -10 15 -17 17 -8
3 -12 -1 -9 -9z"/>
<path d="M3835 2520 c3 -5 8 -10 11 -10 2 0 4 5 4 10 0 6 -5 10 -11 10 -5 0
-7 -4 -4 -10z"/>
<path d="M3751 2494 c0 -11 3 -14 6 -6 3 7 2 16 -1 19 -3 4 -6 -2 -5 -13z"/>
<path d="M3908 2494 c13 -9 26 -13 30 -9 8 8 -17 25 -38 25 -9 0 -6 -6 8 -16z"/>
<path d="M3992 2453 c2 -10 11 -19 21 -21 12 -2 15 1 11 12 -8 22 -36 30 -32
9z"/>
<path d="M3859 2427 c-15 -32 -11 -38 19 -30 26 6 27 12 8 38 -14 19 -15 19
-27 -8z"/>
<path d="M3932 2368 c-14 -14 -16 -35 -2 -43 8 -5 20 0 59 22 7 5 -21 33 -33
33 -7 0 -17 -5 -24 -12z"/>
<path d="M4015 2330 c-6 -10 31 -49 47 -50 19 -1 19 25 -2 42 -25 21 -36 22
-45 8z"/>
<path d="M3780 2300 c0 -5 7 -10 15 -10 8 0 15 5 15 10 0 6 -7 10 -15 10 -8 0
-15 -4 -15 -10z"/>
<path d="M3934 2259 c-4 -7 1 -19 14 -29 13 -11 19 -24 16 -37 -5 -17 0 -20
25 -21 37 -1 38 2 7 31 -13 12 -25 31 -27 41 -5 23 -24 32 -35 15z"/>
<path d="M3601 2206 c-7 -8 -8 -17 -3 -20 6 -3 13 1 16 10 9 23 2 28 -13 10z"/>
<path d="M3830 2180 c0 -6 11 -15 24 -20 18 -7 23 -14 19 -29 -4 -15 -1 -21
11 -21 11 0 16 9 16 30 0 24 -6 33 -26 40 -32 13 -44 13 -44 0z"/>
<path d="M3925 2180 c3 -5 8 -10 11 -10 2 0 4 5 4 10 0 6 -5 10 -11 10 -5 0
-7 -4 -4 -10z"/>
<path d="M4266 2143 c-12 -12 -6 -44 10 -50 14 -5 33 11 34 29 0 11 -36 28
-44 21z"/>
<path d="M3933 2133 c-7 -2 -13 -11 -13 -20 0 -20 34 -12 38 10 3 17 -3 20
-25 10z"/>
<path d="M3660 2115 c0 -8 8 -15 19 -15 10 0 21 -9 24 -20 3 -11 10 -20 16
-20 20 0 24 30 8 48 -21 23 -67 27 -67 7z"/>
<path d="M3570 2071 c0 -17 4 -33 10 -36 11 -7 25 39 15 54 -12 21 -25 11 -25
-18z"/>
<path d="M4080 2090 c0 -5 5 -10 11 -10 5 0 7 5 4 10 -3 6 -8 10 -11 10 -2 0
-4 -4 -4 -10z"/>
<path d="M4136 2086 c7 -19 38 -22 32 -3 -3 6 -12 13 -21 15 -12 2 -15 -1 -11
-12z"/>
<path d="M3832 2058 c-18 -18 -15 -24 18 -38 41 -17 49 -6 18 25 -19 18 -27
22 -36 13z"/>
<path d="M4214 2057 c-3 -10 -13 -16 -20 -13 -18 7 -18 -15 1 -40 19 -25 19
-38 -1 -30 -10 4 -13 2 -8 -6 5 -8 2 -9 -12 -4 -49 21 -54 20 -42 -6 7 -14 23
-30 38 -35 72 -30 121 -14 79 26 -19 18 -21 24 -11 46 10 21 9 32 -2 53 -13
24 -15 25 -22 9z"/>
<path d="M4312 2040 c-12 -33 -3 -45 28 -35 23 7 25 18 10 46 -15 27 -26 24
-38 -11z"/>
<path d="M3440 1936 c0 -9 7 -16 16 -16 17 0 14 22 -4 28 -7 2 -12 -3 -12 -12z"/>
<path d="M3637 1933 c-14 -13 -6 -28 23 -45 30 -17 35 -14 30 22 -3 24 -37 39
-53 23z"/>
<path d="M3583 1892 c-6 -10 -8 -24 -3 -31 4 -7 3 -26 -3 -41 -8 -21 -8 -32 2
-44 17 -21 35 -11 54 30 22 44 21 63 0 71 -10 4 -22 13 -28 20 -8 11 -12 10
-22 -5z"/>
<path d="M4200 1880 c0 -5 5 -10 10 -10 6 0 10 5 10 10 0 6 -4 10 -10 10 -5 0
-10 -4 -10 -10z"/>
<path d="M3631 1756 c-16 -19 -11 -29 8 -17 7 5 12 14 9 21 -3 9 -8 7 -17 -4z"/>
<path d="M2841 6394 c0 -11 3 -14 6 -6 3 7 2 16 -1 19 -3 4 -6 -2 -5 -13z"/>
<path d="M1982 6391 c-16 -10 -16 -17 0 -35 10 -11 15 -11 27 1 12 12 12 16 0
28 -8 9 -19 11 -27 6z"/>
<path d="M1815 6366 c-16 -12 -18 -17 -7 -27 15 -16 36 1 30 25 -3 15 -5 15
-23 2z"/>
<path d="M1700 6360 c0 -5 4 -10 9 -10 6 0 13 5 16 10 3 6 -1 10 -9 10 -9 0
-16 -4 -16 -10z"/>
<path d="M2865 6360 c-18 -8 -18 -9 -2 -9 10 -1 20 -8 23 -16 4 -8 12 -15 20
-15 8 0 14 -4 14 -10 0 -5 5 -10 10 -10 17 0 11 29 -10 50 -22 22 -26 23 -55
10z"/>
<path d="M1738 6298 c5 -5 16 -8 23 -6 8 3 3 7 -10 11 -17 4 -21 3 -13 -5z"/>
<path d="M2957 6256 c-4 -10 -5 -21 -2 -24 9 -9 17 6 13 25 -3 17 -4 17 -11
-1z"/>
<path d="M2870 6243 c0 -19 11 -43 21 -43 13 0 11 14 -6 36 -8 10 -15 14 -15
7z"/>
<path d="M1756 6218 c-22 -31 -20 -35 14 -36 30 -1 36 10 24 42 -8 22 -20 20
-38 -6z"/>
<path d="M1410 6180 c0 -5 7 -10 15 -10 8 0 15 5 15 10 0 6 -7 10 -15 10 -8 0
-15 -4 -15 -10z"/>
<path d="M1553 6160 c-3 -11 -9 -20 -14 -20 -5 0 -9 -4 -9 -10 0 -5 11 -10 24
-10 13 0 29 -7 36 -15 7 -8 17 -12 22 -9 12 8 -21 44 -40 44 -9 0 -13 7 -9 20
3 11 3 20 0 20 -3 0 -7 -9 -10 -20z"/>
<path d="M1656 6037 c-8 -40 -8 -47 4 -47 5 0 12 11 16 25 3 14 10 25 15 25 5
0 9 6 9 14 0 28 -38 13 -44 -17z"/>
<path d="M3143 6043 c-7 -3 -13 -12 -13 -20 0 -12 3 -13 13 -4 8 6 17 8 20 4
4 -3 7 -1 7 5 0 14 -12 20 -27 15z"/>
<path d="M2955 6020 c-3 -5 -1 -10 4 -10 6 0 11 5 11 10 0 6 -2 10 -4 10 -3 0
-8 -4 -11 -10z"/>
<path d="M3142 5968 c6 -18 28 -21 28 -4 0 9 -7 16 -16 16 -9 0 -14 -5 -12
-12z"/>
<path d="M3115 5933 c4 -10 7 -26 7 -35 -1 -22 17 -33 30 -20 8 8 6 16 -6 27
-9 9 -16 23 -16 31 0 8 -5 14 -11 14 -7 0 -8 -7 -4 -17z"/>
<path d="M3230 5936 c0 -9 7 -16 16 -16 17 0 14 22 -4 28 -7 2 -12 -3 -12 -12z"/>
<path d="M1327 5913 c-10 -9 -9 -43 2 -43 5 0 11 6 14 13 6 17 -7 40 -16 30z"/>
<path d="M3175 5854 c-20 -15 -20 -16 4 -12 14 2 26 9 29 16 5 16 -9 15 -33
-4z"/>
<path d="M3111 5816 c-8 -9 -10 -23 -6 -33 6 -16 8 -15 16 6 13 32 7 47 -10
27z"/>
<path d="M3181 5784 c0 -11 3 -14 6 -6 3 7 2 16 -1 19 -3 4 -6 -2 -5 -13z"/>
<path d="M3360 5787 c-14 -6 -26 -12 -27 -12 -2 -1 6 -19 16 -41 17 -34 20
-36 27 -20 5 12 3 21 -4 24 -16 5 -15 18 4 37 21 21 15 25 -16 12z"/>
<path d="M3280 5773 c0 -12 5 -25 11 -28 19 -12 22 3 5 27 l-16 22 0 -21z"/>
<path d="M3075 5730 c3 -5 8 -10 11 -10 2 0 4 5 4 10 0 6 -5 10 -11 10 -5 0
-7 -4 -4 -10z"/>
<path d="M5200 5690 l0 -50 40 0 c22 0 40 5 40 10 0 6 -13 10 -30 10 -28 0
-30 2 -30 40 0 22 -4 40 -10 40 -5 0 -10 -22 -10 -50z"/>
<path d="M3400 5709 c0 -5 5 -7 10 -4 6 3 10 8 10 11 0 2 -4 4 -10 4 -5 0 -10
-5 -10 -11z"/>
<path d="M4818 5663 c12 -2 32 -2 45 0 12 2 2 4 -23 4 -25 0 -35 -2 -22 -4z"/>
<path d="M1360 5650 c0 -5 5 -10 11 -10 5 0 7 5 4 10 -3 6 -8 10 -11 10 -2 0
-4 -4 -4 -10z"/>
<path d="M3375 5650 c4 -6 11 -8 16 -5 14 9 11 15 -7 15 -8 0 -12 -5 -9 -10z"/>
<path d="M3280 5580 c-14 -26 -3 -45 16 -29 16 13 19 49 4 49 -5 0 -14 -9 -20
-20z"/>
<path d="M4400 5590 c0 -5 18 -10 40 -10 22 0 40 5 40 10 0 6 -18 10 -40 10
-22 0 -40 -4 -40 -10z"/>
<path d="M4480 5540 c0 -5 18 -10 40 -10 22 0 40 5 40 10 0 6 -18 10 -40 10
-22 0 -40 -4 -40 -10z"/>
<path d="M3420 5519 c0 -5 5 -9 10 -9 6 0 10 -13 10 -28 0 -25 34 -72 52 -72
8 0 -6 60 -20 86 -12 22 -52 40 -52 23z"/>
<path d="M3400 5460 c-8 -5 -12 -12 -9 -15 8 -8 39 5 39 16 0 11 -11 11 -30
-1z"/>
<path d="M1677 5359 c5 -18 40 -32 55 -23 13 9 -9 31 -36 36 -18 4 -22 1 -19
-13z"/>
<path d="M3486 5371 c-4 -5 -2 -12 3 -15 5 -4 12 -2 15 3 4 5 2 12 -3 15 -5 4
-12 2 -15 -3z"/>
<path d="M1770 5320 c0 -11 5 -20 10 -20 6 0 10 9 10 20 0 11 -4 20 -10 20 -5
0 -10 -9 -10 -20z"/>
<path d="M1696 5301 c-4 -5 0 -12 6 -14 8 -3 6 -6 -4 -6 -28 -1 -21 -18 14
-35 51 -26 86 -18 56 12 -9 9 -9 12 1 12 7 0 9 5 5 11 -5 8 -10 6 -16 -5 -5
-9 -14 -16 -20 -16 -7 0 -6 5 2 15 6 8 9 19 5 25 -8 12 -42 13 -49 1z"/>
<path d="M3532 5261 c4 -13 18 -16 19 -4 0 4 -5 9 -11 12 -7 2 -11 -2 -8 -8z"/>
<path d="M3555 5190 c3 -5 8 -10 11 -10 2 0 4 5 4 10 0 6 -5 10 -11 10 -5 0
-7 -4 -4 -10z"/>
<path d="M4098 5183 c12 -2 32 -2 45 0 12 2 2 4 -23 4 -25 0 -35 -2 -22 -4z"/>
<path d="M3581 5151 c-7 -5 -12 -14 -10 -20 3 -6 9 -7 18 -2 7 5 12 14 10 20
-3 6 -9 7 -18 2z"/>
<path d="M1756 5132 c-8 -13 7 -29 27 -29 9 0 17 3 17 6 0 11 -39 31 -44 23z"/>
<path d="M3680 5120 c0 -5 5 -10 11 -10 5 0 7 5 4 10 -3 6 -8 10 -11 10 -2 0
-4 -4 -4 -10z"/>
<path d="M4053 5116 c-4 -8 -19 -16 -33 -19 -16 -3 -10 -5 18 -6 36 -1 42 2
42 19 0 23 -15 26 -27 6z"/>
<path d="M4330 5120 c0 -5 16 -10 35 -10 19 0 35 5 35 10 0 6 -16 10 -35 10
-19 0 -35 -4 -35 -10z"/>
<path d="M4100 5090 c8 -5 26 -9 40 -9 l25 1 -25 8 c-14 4 -32 8 -40 9 -13 1
-13 0 0 -9z"/>
<path d="M4215 5091 c-37 -8 -22 -19 38 -27 31 -4 47 -2 52 6 6 10 0 12 -28 7
-37 -6 -53 7 -19 16 27 7 -8 6 -43 -2z"/>
<path d="M4375 5090 c3 -5 10 -10 16 -10 5 0 9 5 9 10 0 6 -7 10 -16 10 -8 0
-12 -4 -9 -10z"/>
<path d="M1710 5076 c0 -13 29 -31 37 -23 2 2 1 12 -3 21 -8 20 -34 21 -34 2z"/>
<path d="M3928 5083 c6 -2 18 -2 25 0 6 3 1 5 -13 5 -14 0 -19 -2 -12 -5z"/>
<path d="M3935 5060 c-86 -24 -99 -25 -91 -4 3 9 2 12 -4 9 -6 -4 -10 -12 -9
-18 1 -7 -1 -20 -6 -31 -10 -23 4 -32 61 -41 24 -3 46 -10 49 -16 4 -5 15 -9
26 -9 10 0 19 -4 19 -10 0 -17 40 -33 54 -20 16 13 29 -11 20 -35 -5 -11 1
-15 25 -15 22 0 42 -11 73 -40 23 -22 47 -39 54 -36 8 3 11 -6 10 -27 -1 -35
-2 -34 103 -40 43 -3 61 -34 41 -72 -16 -29 -14 -32 23 -39 56 -10 68 -17 62
-36 -7 -23 19 -50 49 -50 36 0 59 -33 51 -70 -5 -25 -2 -37 15 -55 12 -13 19
-28 16 -34 -7 -11 32 -36 41 -27 3 3 -2 12 -10 21 -15 14 -12 20 29 60 24 25
54 45 65 45 11 0 23 10 29 24 5 13 19 31 30 39 14 9 19 20 15 28 -6 9 -1 10
20 5 24 -6 27 -5 22 13 -3 12 3 27 14 37 21 19 17 51 -10 71 -41 32 -93 63
-106 63 -8 0 -16 4 -20 9 -3 5 -19 12 -35 16 -17 4 -30 10 -30 15 0 5 -9 12
-20 15 -11 3 -20 11 -20 16 0 5 -21 30 -46 56 -35 35 -43 48 -33 55 9 5 4 6
-13 2 -22 -5 -28 -3 -28 10 0 9 -8 16 -18 16 -19 0 -56 33 -47 42 3 2 -6 10
-20 16 -32 15 -31 12 10 -73 18 -38 32 -71 31 -73 -4 -3 -56 75 -56 84 0 4
-11 22 -25 40 -14 18 -25 38 -25 45 0 10 -3 10 -11 2 -8 -8 -22 -8 -51 3 -23
8 -59 16 -82 18 -160 15 -172 15 -241 -4z m528 -237 c22 -50 16 -52 -12 -3
-12 22 -18 40 -14 40 5 0 16 -17 26 -37z"/>
<path d="M3755 5010 c-11 -18 5 -31 26 -20 11 6 17 15 14 21 -8 12 -32 12 -40
-1z"/>
<path d="M1794 4985 c-22 -33 -15 -38 15 -10 14 14 19 25 12 29 -5 4 -18 -5
-27 -19z"/>
<path d="M4432 4989 c2 -7 10 -15 17 -17 8 -3 12 1 9 9 -2 7 -10 15 -17 17 -8
3 -12 -1 -9 -9z"/>
<path d="M1817 4924 c-8 -8 1 -24 14 -24 5 0 9 7 9 15 0 15 -12 20 -23 9z"/>
<path d="M3890 4915 c0 -8 6 -15 14 -15 8 0 22 -3 32 -7 12 -4 15 -2 12 8 -3
8 -11 13 -17 12 -6 -2 -11 2 -11 7 0 6 -7 10 -15 10 -8 0 -15 -7 -15 -15z"/>
<path d="M3970 4895 c0 -10 7 -15 18 -13 21 4 19 22 -2 26 -10 2 -16 -3 -16
-13z"/>
<path d="M3807 4875 c-4 -9 -1 -18 9 -22 22 -8 30 5 12 23 -14 14 -16 14 -21
-1z"/>
<path d="M1910 4850 c0 -5 5 -10 10 -10 6 0 10 5 10 10 0 6 -4 10 -10 10 -5 0
-10 -4 -10 -10z"/>
<path d="M3773 4834 c-7 -19 11 -39 26 -30 16 10 13 33 -4 40 -9 3 -18 -1 -22
-10z"/>
<path d="M4000 4804 c0 -8 5 -12 10 -9 6 3 10 10 10 16 0 5 -4 9 -10 9 -5 0
-10 -7 -10 -16z"/>
<path d="M1700 4780 c0 -5 5 -10 10 -10 6 0 10 5 10 10 0 6 -4 10 -10 10 -5 0
-10 -4 -10 -10z"/>
<path d="M1790 4765 c0 -8 5 -15 10 -15 6 0 10 7 10 15 0 8 -4 15 -10 15 -5 0
-10 -7 -10 -15z"/>
<path d="M4040 4761 c0 -11 4 -22 9 -25 11 -7 20 14 13 32 -7 19 -22 14 -22
-7z"/>
<path d="M3932 4758 c7 -20 48 -23 48 -4 0 11 -9 16 -26 16 -16 0 -24 -5 -22
-12z"/>
<path d="M3840 4751 c0 -12 29 -35 36 -28 11 10 -5 37 -21 37 -8 0 -15 -4 -15
-9z"/>
<path d="M4098 4738 c3 -14 2 -19 -6 -14 -7 4 -12 2 -12 -4 0 -7 7 -9 16 -6 9
3 18 6 20 6 2 0 4 9 4 20 0 11 -6 20 -14 20 -10 0 -12 -7 -8 -22z"/>
<path d="M1870 4730 c-12 -8 -10 -10 8 -10 13 0 20 4 17 10 -7 12 -6 12 -25 0z"/>
<path d="M3902 4709 c3 -8 15 -13 27 -12 16 2 26 -5 36 -30 l14 -32 1 31 c0
25 -5 33 -24 38 -13 3 -32 9 -41 13 -13 4 -16 2 -13 -8z"/>
<path d="M3996 4686 c7 -19 38 -22 32 -3 -3 6 -12 13 -21 15 -12 2 -15 -1 -11
-12z"/>
<path d="M4276 4681 c-19 -21 -12 -28 13 -12 7 5 12 14 9 21 -2 7 -10 4 -22
-9z"/>
<path d="M4170 4670 c0 -5 5 -10 10 -10 6 0 10 5 10 10 0 6 -4 10 -10 10 -5 0
-10 -4 -10 -10z"/>
<path d="M5120 4649 c0 -11 4 -18 10 -14 5 3 7 12 3 20 -7 21 -13 19 -13 -6z"/>
<path d="M4960 4650 c0 -5 9 -10 20 -10 11 0 20 5 20 10 0 6 -9 10 -20 10 -11
0 -20 -4 -20 -10z"/>
<path d="M4016 4641 c-4 -7 -5 -15 -2 -18 9 -9 19 4 14 18 -4 11 -6 11 -12 0z"/>
<path d="M3960 4614 c0 -8 5 -12 10 -9 6 4 8 11 5 16 -9 14 -15 11 -15 -7z"/>
<path d="M4856 4622 c-3 -6 -1 -14 5 -17 14 -9 20 -2 10 14 -6 8 -11 9 -15 3z"/>
<path d="M1880 4613 c0 -12 51 -33 62 -27 5 4 -3 12 -17 20 -30 16 -45 18 -45
7z"/>
<path d="M4085 4590 c-4 -12 -5 -24 -2 -27 9 -9 48 18 44 30 -7 21 -35 19 -42
-3z"/>
<path d="M5210 4600 c-8 -5 -11 -12 -7 -16 4 -4 13 -2 19 4 15 15 7 24 -12 12z"/>
<path d="M2007 4594 c-14 -14 -7 -35 11 -32 9 2 17 10 17 17 0 16 -18 25 -28
15z"/>
<path d="M4370 4590 c0 -5 5 -10 10 -10 6 0 10 5 10 10 0 6 -4 10 -10 10 -5 0
-10 -4 -10 -10z"/>
<path d="M2080 4560 c0 -5 5 -10 10 -10 6 0 10 5 10 10 0 6 -4 10 -10 10 -5 0
-10 -4 -10 -10z"/>
<path d="M4268 4533 c7 -3 16 -2 19 1 4 3 -2 6 -13 5 -11 0 -14 -3 -6 -6z"/>
<path d="M4365 4530 c-7 -12 2 -30 16 -30 5 0 9 9 9 20 0 21 -15 27 -25 10z"/>
<path d="M4135 4491 c-3 -6 3 -15 14 -21 21 -11 37 2 26 20 -8 13 -32 13 -40
1z"/>
<path d="M5347 4494 c-11 -11 3 -24 24 -24 12 0 19 5 17 13 -5 14 -31 21 -41
11z"/>
<path d="M4800 4481 c0 -6 5 -13 10 -16 6 -3 10 1 10 9 0 9 -4 16 -10 16 -5 0
-10 -4 -10 -9z"/>
<path d="M4156 4418 c1 -39 12 -46 24 -14 13 35 13 33 -7 38 -14 4 -18 -1 -17
-24z"/>
<path d="M4225 4430 c3 -5 8 -10 11 -10 2 0 4 5 4 10 0 6 -5 10 -11 10 -5 0
-7 -4 -4 -10z"/>
<path d="M4293 4415 c-3 -9 -3 -19 1 -22 8 -9 37 18 30 28 -8 14 -24 11 -31
-6z"/>
<path d="M4645 4420 c-3 -5 -1 -10 4 -10 6 0 11 5 11 10 0 6 -2 10 -4 10 -3 0
-8 -4 -11 -10z"/>
<path d="M2050 4395 c0 -8 5 -15 11 -15 5 0 7 -4 4 -10 -3 -5 -1 -10 4 -10 6
0 11 11 11 25 0 16 -6 25 -15 25 -8 0 -15 -7 -15 -15z"/>
<path d="M4985 4399 c-11 -17 1 -21 15 -4 8 9 8 15 2 15 -6 0 -14 -5 -17 -11z"/>
<path d="M4383 4370 c1 -22 23 -35 33 -19 9 15 -3 39 -20 39 -9 0 -14 -8 -13
-20z"/>
<path d="M5335 4370 c3 -5 8 -10 11 -10 2 0 4 5 4 10 0 6 -5 10 -11 10 -5 0
-7 -4 -4 -10z"/>
<path d="M4960 4315 c0 -17 5 -25 13 -22 6 2 12 12 12 22 0 10 -6 20 -12 23
-8 2 -13 -6 -13 -23z"/>
<path d="M5210 4330 c0 -5 7 -10 15 -10 14 0 16 -7 19 -54 1 -26 20 -30 42 -9
16 17 16 18 1 21 -9 2 -17 7 -17 11 0 4 -8 18 -19 29 -19 23 -41 29 -41 12z"/>
<path d="M4400 4300 c-8 -15 -8 -20 2 -20 22 0 41 17 34 29 -11 17 -24 13 -36
-9z"/>
<path d="M2040 4290 c0 -19 3 -21 12 -12 9 9 9 15 0 24 -9 9 -12 7 -12 -12z"/>
<path d="M4604 4275 c-4 -8 -12 -15 -19 -15 -7 0 -15 -11 -17 -25 -3 -14 -2
-25 3 -25 4 0 14 -12 21 -27 17 -35 53 -46 43 -13 -5 15 -4 20 4 16 11 -7 8
74 -4 94 -9 15 -25 12 -31 -5z"/>
<path d="M5453 4264 c-3 -9 0 -26 7 -37 10 -17 10 -23 -6 -34 -10 -7 -22 -13
-27 -13 -4 0 -7 -10 -5 -22 4 -29 38 -37 45 -10 2 11 16 25 29 32 26 14 34 46
9 37 -20 -8 -30 11 -15 28 6 8 9 19 5 25 -10 16 -35 12 -42 -6z"/>
<path d="M4360 4260 c0 -5 7 -10 15 -10 8 0 15 5 15 10 0 6 -7 10 -15 10 -8 0
-15 -4 -15 -10z"/>
<path d="M4430 4241 c0 -5 5 -13 10 -16 6 -3 10 -2 10 4 0 5 -4 13 -10 16 -5
3 -10 2 -10 -4z"/>
<path d="M4390 4230 c0 -5 5 -10 10 -10 6 0 10 5 10 10 0 6 -4 10 -10 10 -5 0
-10 -4 -10 -10z"/>
<path d="M2156 4205 c9 -14 20 -25 25 -25 12 0 -12 38 -28 45 -9 3 -8 -4 3
-20z"/>
<path d="M4962 4205 c-28 -15 -54 -50 -45 -59 12 -12 42 -6 37 7 -3 8 9 19 28
28 33 14 41 33 16 36 -7 1 -23 -5 -36 -12z"/>
<path d="M4816 4188 c-15 -21 -13 -38 4 -38 4 0 13 14 19 30 12 35 -1 40 -23
8z"/>
<path d="M4425 4190 c7 -12 55 -14 55 -2 0 4 -14 8 -30 9 -18 1 -28 -2 -25 -7z"/>
<path d="M2226 4155 c-31 -31 -16 -47 20 -21 14 11 16 18 8 26 -8 8 -15 7 -28
-5z"/>
<path d="M5105 4149 c-4 -6 -5 -13 -2 -16 7 -7 27 6 27 18 0 12 -17 12 -25 -2z"/>
<path d="M5510 4145 c0 -9 5 -15 11 -13 6 2 11 8 11 13 0 5 -5 11 -11 13 -6 2
-11 -4 -11 -13z"/>
<path d="M5265 4090 c3 -5 8 -10 11 -10 2 0 4 5 4 10 0 6 -5 10 -11 10 -5 0
-7 -4 -4 -10z"/>
<path d="M2250 3976 c0 -14 5 -28 10 -31 6 -4 10 7 10 24 0 17 -4 31 -10 31
-5 0 -10 -11 -10 -24z"/>
<path d="M2325 3830 c-3 -5 -1 -10 4 -10 6 0 11 5 11 10 0 6 -2 10 -4 10 -3 0
-8 -4 -11 -10z"/>
<path d="M2366 3832 c-3 -6 -1 -14 5 -17 14 -9 20 -2 10 14 -6 8 -11 9 -15 3z"/>
<path d="M2176 3761 c-4 -7 -5 -15 -2 -18 9 -9 19 4 14 18 -4 11 -6 11 -12 0z"/>
<path d="M6946 3739 c-23 -22 -13 -38 13 -22 20 13 54 -3 104 -50 22 -22 27
-34 27 -76 0 -27 -4 -53 -10 -56 -5 -3 -15 -15 -20 -26 -17 -30 10 -24 48 12
37 34 43 64 12 54 -17 -5 -20 -2 -20 27 0 38 -42 108 -65 108 -3 0 -16 11 -29
25 -28 30 -35 30 -60 4z"/>
<path d="M2420 3710 c0 -12 -4 -18 -10 -15 -5 3 -10 -3 -10 -14 0 -29 27 -26
34 4 9 36 9 39 -3 43 -6 2 -11 -6 -11 -18z"/>
<path d="M2260 3670 c0 -5 5 -10 11 -10 5 0 7 5 4 10 -3 6 -8 10 -11 10 -2 0
-4 -4 -4 -10z"/>
<path d="M5720 3657 c0 -2 11 -13 25 -25 27 -24 35 -13 9 12 -14 14 -34 22
-34 13z"/>
<path d="M5840 3567 c0 -20 97 -80 117 -73 14 6 11 10 -12 22 -17 8 -44 26
-62 40 -36 28 -43 29 -43 11z"/>
<path d="M7325 3490 c-5 -6 -33 -27 -60 -48 -42 -32 -55 -38 -75 -30 -33 12
-53 6 -56 -17 -2 -20 -11 -71 -14 -90 -8 -40 31 -75 97 -89 39 -9 48 -29 22
-52 -10 -9 -19 -21 -19 -26 0 -17 32 -7 56 17 14 14 29 25 34 25 15 0 12 23
-6 48 -9 13 -14 26 -11 28 10 10 48 -17 57 -42 5 -13 17 -24 25 -24 10 0 13 5
8 12 -13 22 -11 92 4 121 8 16 12 34 10 41 -3 7 4 23 14 37 25 33 24 49 -6 49
-18 0 -32 -11 -50 -39 -19 -29 -31 -37 -45 -34 -11 3 -18 9 -15 13 3 5 -1 10
-7 13 -9 3 -5 13 13 33 39 45 52 64 43 64 -5 -1 -13 -5 -19 -10z m45 -160 c0
-5 -4 -10 -10 -10 -5 0 -10 5 -10 10 0 6 5 10 10 10 6 0 10 -4 10 -10z"/>
<path d="M5970 3481 c0 -11 21 -28 80 -66 81 -51 164 -109 188 -131 13 -11 45
-32 72 -45 28 -13 50 -28 50 -34 0 -5 27 -26 60 -45 33 -19 60 -39 60 -45 0
-5 38 -35 83 -65 45 -30 84 -58 85 -62 2 -5 10 -8 18 -8 8 0 14 -4 14 -10 0
-5 5 -10 10 -10 6 0 72 -44 148 -98 75 -54 175 -124 222 -155 47 -31 103 -69
124 -85 22 -15 72 -49 111 -77 219 -152 205 -144 205 -122 0 10 -119 95 -484
348 -45 30 -124 86 -176 123 -52 36 -115 79 -139 94 -24 15 -49 32 -55 38 -19
18 -144 104 -152 104 -3 0 -21 12 -39 28 -48 40 -213 152 -224 152 -5 0 -11 3
-13 8 -3 6 -54 44 -112 82 -82 54 -105 70 -111 80 -8 12 -25 13 -25 1z"/>
<path d="M5604 3469 c-3 -6 -20 -19 -38 -30 l-31 -20 37 4 c21 2 41 6 44 10 9
9 35 -4 28 -14 -3 -5 2 -9 11 -9 19 0 70 -55 86 -92 16 -39 3 -131 -22 -154
-10 -9 -19 -21 -19 -26 0 -17 36 -7 63 17 29 27 63 85 50 85 -5 0 -1 5 7 10 8
5 10 10 4 10 -6 0 -19 -9 -29 -20 -26 -29 -30 -26 -31 29 0 42 -7 58 -41 103
-81 107 -102 124 -119 97z"/>
<path d="M2380 3455 c-10 -12 -10 -15 4 -15 9 0 16 7 16 15 0 8 -2 15 -4 15
-2 0 -9 -7 -16 -15z"/>
<path d="M6915 3460 c-6 -9 11 -50 20 -50 3 0 5 14 5 30 0 29 -13 40 -25 20z"/>
<path d="M7334 3448 l-19 -23 23 19 c21 18 27 26 19 26 -2 0 -12 -10 -23 -22z"/>
<path d="M7079 3335 c-26 -14 -45 -43 -35 -53 8 -8 66 39 66 54 0 17 2 17 -31
-1z"/>
<path d="M2432 3303 c2 -10 13 -19 26 -21 25 -4 28 3 8 24 -20 19 -38 18 -34
-3z"/>
<path d="M2525 3300 c-3 -5 1 -10 9 -10 8 0 18 5 21 10 3 6 -1 10 -9 10 -8 0
-18 -4 -21 -10z"/>
<path d="M5955 3230 c3 -5 8 -10 11 -10 2 0 4 5 4 10 0 6 -5 10 -11 10 -5 0
-7 -4 -4 -10z"/>
<path d="M2549 3188 c-9 -16 -9 -23 0 -26 6 -2 11 -12 11 -22 0 -10 4 -21 9
-24 4 -3 9 17 10 44 1 53 -11 64 -30 28z"/>
<path d="M2600 3170 c0 -5 7 -7 15 -4 8 4 15 8 15 10 0 2 -7 4 -15 4 -8 0 -15
-4 -15 -10z"/>
<path d="M2510 3149 c0 -5 5 -7 10 -4 6 3 10 8 10 11 0 2 -4 4 -10 4 -5 0 -10
-5 -10 -11z"/>
<path d="M5680 3118 c0 -9 -6 -18 -12 -20 -16 -6 -18 -102 -2 -118 8 -8 9 4 6
43 -3 42 0 57 13 71 13 13 15 20 6 29 -8 8 -11 7 -11 -5z"/>
<path d="M7142 3088 c-39 -31 -49 -44 -42 -54 16 -19 62 -2 115 42 25 21 45
40 45 41 0 2 -11 1 -25 -3 -15 -4 -25 -2 -25 5 0 17 -11 12 -68 -31z"/>
<path d="M2635 3110 c-3 -5 1 -10 9 -10 9 0 16 5 16 10 0 6 -4 10 -9 10 -6 0
-13 -4 -16 -10z"/>
<path d="M2670 3084 c0 -8 5 -12 10 -9 6 4 8 11 5 16 -9 14 -15 11 -15 -7z"/>
<path d="M6005 3091 c3 -6 -3 -14 -12 -20 -20 -11 -4 -15 21 -5 20 8 20 20 0
28 -8 3 -12 2 -9 -3z"/>
<path d="M6060 3091 c0 -5 7 -11 15 -15 8 -3 15 -1 15 3 0 5 -7 11 -15 15 -8
3 -15 1 -15 -3z"/>
<path d="M2514 3065 c-19 -14 -18 -14 4 -15 13 0 22 6 22 15 0 19 -1 19 -26 0z"/>
<path d="M2760 3039 c-11 -19 -10 -20 10 -9 11 6 18 15 15 21 -9 13 -13 11
-25 -12z"/>
<path d="M2661 3034 c0 -11 3 -14 6 -6 3 7 2 16 -1 19 -3 4 -6 -2 -5 -13z"/>
<path d="M2750 2993 c0 -12 31 -34 40 -28 17 11 11 22 -15 27 -14 3 -25 3 -25
1z"/>
<path d="M2640 2921 c0 -7 -8 -11 -17 -9 -28 5 -28 -29 0 -34 27 -5 57 12 57
32 0 7 -3 10 -7 7 -3 -4 -12 -2 -20 4 -10 9 -13 8 -13 0z"/>
<path d="M2730 2884 c0 -8 5 -12 10 -9 6 4 8 11 5 16 -9 14 -15 11 -15 -7z"/>
<path d="M1088 2883 c6 -2 18 -2 25 0 6 3 1 5 -13 5 -14 0 -19 -2 -12 -5z"/>
<path d="M6299 2842 c8 -15 4 -22 -20 -36 -16 -10 -40 -27 -53 -39 -43 -40
-118 -102 -142 -117 -13 -8 -24 -23 -24 -32 0 -32 66 -23 109 15 34 30 94 80
151 125 22 18 23 22 10 37 -8 10 -14 20 -13 21 4 9 -10 44 -19 44 -5 0 -5 -8
1 -18z"/>
<path d="M2632 2809 c2 -7 10 -15 17 -17 8 -3 12 1 9 9 -2 7 -10 15 -17 17 -8
3 -12 -1 -9 -9z"/>
<path d="M2710 2800 c0 -13 5 -20 13 -17 6 2 12 10 12 17 0 7 -6 15 -12 18 -8
2 -13 -5 -13 -18z"/>
<path d="M728 2803 c7 -3 16 -2 19 1 4 3 -2 6 -13 5 -11 0 -14 -3 -6 -6z"/>
<path d="M578 2763 c7 -3 16 -2 19 1 4 3 -2 6 -13 5 -11 0 -14 -3 -6 -6z"/>
<path d="M6080 2761 c0 -5 7 -11 15 -15 8 -3 15 -1 15 3 0 5 -7 11 -15 15 -8
3 -15 1 -15 -3z"/>
<path d="M510 2751 c0 -8 23 -21 39 -21 4 0 8 7 8 15 0 9 -10 15 -24 15 -12 0
-23 -4 -23 -9z"/>
<path d="M418 2713 c7 -3 16 -2 19 1 4 3 -2 6 -13 5 -11 0 -14 -3 -6 -6z"/>
<path d="M2742 2683 c3 -29 16 -37 37 -24 10 7 11 13 2 30 -17 31 -43 27 -39
-6z"/>
<path d="M348 2693 c7 -3 16 -2 19 1 4 3 -2 6 -13 5 -11 0 -14 -3 -6 -6z"/>
<path d="M110 2620 c-18 -12 -2 -12 25 0 13 6 15 9 5 9 -8 0 -22 -4 -30 -9z"/>
<path d="M45 2600 c-13 -5 -14 -9 -5 -9 8 0 24 4 35 9 13 5 14 9 5 9 -8 0 -24
-4 -35 -9z"/>
<path d="M388 2563 c-14 -17 5 -16 52 2 l35 13 -38 -2 c-21 0 -43 -7 -49 -13z"/>
<path d="M1140 2110 l-25 -8 25 0 c14 0 34 3 45 8 l20 9 -20 -1 c-11 0 -31 -4
-45 -8z"/>
<path d="M98 1863 c7 -3 16 -2 19 1 4 3 -2 6 -13 5 -11 0 -14 -3 -6 -6z"/>
<path d="M1105 1860 c3 -5 8 -10 11 -10 2 0 4 5 4 10 0 6 -5 10 -11 10 -5 0
-7 -4 -4 -10z"/>
<path d="M100 1831 c0 -4 5 -22 11 -38 8 -24 19 -33 49 -41 28 -7 44 -6 55 2
12 9 9 11 -20 12 -39 1 -75 28 -75 56 0 10 -4 18 -10 18 -5 0 -10 -4 -10 -9z"/>
<path d="M1162 1700 c-17 -28 -15 -32 8 -18 11 7 20 18 20 25 0 19 -14 16 -28
-7z"/>
<path d="M4281 1304 c0 -11 3 -14 6 -6 3 7 2 16 -1 19 -3 4 -6 -2 -5 -13z"/>
<path d="M4300 1286 c0 -2 8 -10 18 -17 15 -13 16 -12 3 4 -13 16 -21 21 -21
13z"/>
<path d="M4320 1210 c0 -5 5 -10 11 -10 5 0 7 5 4 10 -3 6 -8 10 -11 10 -2 0
-4 -4 -4 -10z"/>
<path d="M4475 899 c-4 -6 -5 -12 -2 -15 2 -3 7 2 10 11 7 17 1 20 -8 4z"/>
<path d="M1620 585 c-8 -9 -8 -15 -2 -15 12 0 26 19 19 26 -2 2 -10 -2 -17
-11z"/>
<path d="M1808 152 c11 -11 20 -14 24 -8 7 11 -9 26 -29 26 -9 0 -7 -6 5 -18z"/>
<path d="M1845 10 c3 -5 14 -10 23 -10 15 0 15 2 2 10 -20 13 -33 13 -25 0z"/>
</g>
</svg>
